<?xml version="1.0" encoding="UTF-8"?><svg id="Layer_1" xmlns="http://www.w3.org/2000/svg" viewBox="0 0 128 128"><defs><style>.cls-1{fill:#eee;}.cls-1,.cls-2{stroke-width:0px;}.cls-2{fill:#f3371d;}</style></defs><circle class="cls-1" cx="64" cy="64" r="63.5"/><g id="SSX"><path class="cls-2" d="m97.42,60.74c2.42,3.87,3.77,8.06,3.65,12.65-.15,5.85-2.13,11.09-5.64,15.74-4.37,5.79-10.04,9.64-17.11,11.38-2.1.52-4.24.69-6.4.69-16.54,0-33.08,0-49.62,0-.37,0-.78.15-1.18-.3-.25-.78.67-2.43.95-3.19.52-1.44,1.05-2.88,1.58-4.32,1.93-5.22,3.9-10.42,5.76-15.66.26-.74,2-6.32,2.62-6.32.93.15,1.49.82,2.13,1.3,3.64,2.72,7.72,4.17,12.26,4.32,1.32.04,2.63.08,3.71,1.02.37.32.84.2,1.28.21,6.5.2,13,.39,19.5.6.44.01.92-.08,1.29.2.97.73,2.15,1.02,3.2,1.62,2.74,1.58,6.09.26,7.18-2.68.73-1.98.15-4.3-1.39-5.57-1.79-1.48-4.04-1.69-6-.6-1.32.73-2.65,1.62-4.18,1.7-6.44.35-12.88.6-19.32.88-.55.02-1.11-.06-1.61.24-2.96,1.82-5.98.77-8.9,0-3.47-.91-6.31-3.04-8.9-5.47v-.02c-2.52-3.34-4.59-7.09-5.2-11.31s.1-8.67,1.67-12.57c1.11-2.74,2.68-5.26,4.53-7.56,4.54-5.64,10.42-9.19,17.51-10.7,1.25-.27,2.52-.24,3.79-.24,16.81,0,33.62,0,50.44,0,.58,0,1.21-.14,1.89.32-.96,2.68-1.91,5.35-2.89,8.02-2.46,6.7-4.93,13.52-7.49,20.23-.07.19-.15.38-.23.56-.04.08-.19.52-.28.54-.51.12-.94-.12-1.23-.4-3.4-3.3-7.59-4.72-12.19-5.21-.93-.1-1.99-.12-2.72-.59-1.17-.76-2.38-.74-3.63-.8-5.94-.27-11.89-.52-17.83-.78-.44-.02-.99.07-1.29-.16-1.02-.78-2.32-.91-3.4-1.59-1.95-1.21-4.69-.65-6.18,1.04-1.59,1.8-1.71,4.45-.28,6.39,1.68,2.27,4.3,2.74,6.88,1.31,1.51-.84,2.98-1.74,4.85-1.77,5.89-.1,11.79-.29,17.68-.46,1.09-.03,2.15-.02,3.14-.73.59-.43,1.47-.46,2.25-.39,2.65.23,5.18.88,7.62,2.01,2.64,1.23,4.72,3.15,6.77,5.14-.02.08.01.13.1.14.21.44.47.84.88,1.12Z"/><path class="cls-2" d="m62.24,51.43c-.77.69-1.49.62-2.29.1.87-.88,1.13-.89,2.29-.1Z"/><path class="cls-2" d="m69.6,76.36c-1.19.54-1.98.65-2.86-.09.91-.66,1.7-.65,2.86.09Z"/></g></svg>