<svg xmlns="http://www.w3.org/2000/svg" viewBox="0 0 72 72"><circle cx="36" cy="36" r="35" fill="#fff"/><linearGradient id="a" x1="-4.2" x2="66.5" y1="49.8" y2="-3.4" gradientUnits="userSpaceOnUse"><stop offset="0" stop-color="#fa62fc"/><stop offset=".1" stop-color="#be84e8"/><stop offset=".4" stop-color="#79abd2"/><stop offset=".5" stop-color="#68b5cd"/><stop offset=".6" stop-color="#3dcdbe"/><stop offset=".6" stop-color="#38d0bd"/><stop offset=".8" stop-color="#1dd79b"/></linearGradient><path fill="url(#a)" d="M54 25H11c-2 0-2-2-1-3l7-7 1-1h43c2 0 2 2 1 3l-7 7-1 1z"/><linearGradient id="b" x1="21" x2="52.5" y1="75.6" y2="27.1" gradientUnits="userSpaceOnUse"><stop offset=".2" stop-color="#c947e7"/><stop offset=".6" stop-color="#9775d8"/><stop offset=".9" stop-color="#7397ce"/><stop offset="1" stop-color="#38d0bd"/><stop offset="1" stop-color="#1dd79b"/></linearGradient><path fill="url(#b)" d="M54 58H11c-2 0-2-2-1-3l7-7 1-1h43c2 0 2 2 1 3l-7 7-1 1z"/><linearGradient id="c" x1="33.3" x2="41.1" y1="48.7" y2="12.1" gradientUnits="userSpaceOnUse"><stop offset="0" stop-color="#9677d8"/><stop offset=".1" stop-color="#8c80d5"/><stop offset=".3" stop-color="#8388d3"/><stop offset=".4" stop-color="#6b9ecb"/><stop offset=".6" stop-color="#5cabc7"/><stop offset=".6" stop-color="#57b0c5"/><stop offset=".8" stop-color="#4dbac3"/><stop offset="1" stop-color="#49bec2"/></linearGradient><path fill="url(#c)" d="M18 41h43c2 0 2-2 1-3l-7-7H11c-2 0-2 2-1 3l7 7h1z"/></svg>