<?xml version="1.0" encoding="utf-8"?>
<!-- Generator: Adobe Illustrator 27.4.0, SVG Export Plug-In . SVG Version: 6.00 Build 0)  -->
<svg version="1.1" id="Layer_1" xmlns="http://www.w3.org/2000/svg" xmlns:xlink="http://www.w3.org/1999/xlink" x="0px" y="0px"
	 viewBox="0 0 128 128" style="enable-background:new 0 0 128 128;" xml:space="preserve">
<style type="text/css">
	.st0{fill:#288DC1;}
	.st1{fill:#FFFFFF;}
</style>
<circle class="st0" cx="64" cy="64" r="63.5"/>
<path class="st1" d="M42.1,65.4c9.1,0,16.5-7.4,16.5-16.5V23.4h-7.1v11.9c-2.7-1.8-5.9-2.9-9.4-2.9c-9.1,0-16.5,7.4-16.5,16.5
	C25.6,58,32.9,65.4,42.1,65.4z M42.1,39.5c5.2,0,9.4,4.2,9.4,9.4c0,5.2-4.2,9.4-9.4,9.4c-5.2,0-9.4-4.2-9.4-9.4
	C32.7,43.7,36.9,39.5,42.1,39.5z"/>
<path class="st1" d="M77.7,27.9c-9.1,0-16.5,7.4-16.5,16.5c0,9.1,7.4,16.5,16.5,16.5c9.1,0,16.5-7.4,16.5-16.5
	c0-3.5-1.1-6.7-2.9-9.4h11.9v-7.1H77.7z M87,44.4c0,5.2-4.2,9.4-9.4,9.4c-5.2,0-9.4-4.2-9.4-9.4c0-5.2,4.2-9.4,9.4-9.4
	C82.8,35,87,39.2,87,44.4z"/>
<path class="st1" d="M85.9,62.6c-9.1,0-16.5,7.4-16.5,16.5v25.5h7.1V92.6c2.7,1.8,5.9,2.9,9.4,2.9c9.1,0,16.5-7.4,16.5-16.5
	C102.4,70,95.1,62.6,85.9,62.6z M85.9,88.5c-5.2,0-9.4-4.2-9.4-9.4c0-5.2,4.2-9.4,9.4-9.4c5.2,0,9.4,4.2,9.4,9.4
	C95.3,84.3,91.1,88.5,85.9,88.5z"/>
<path class="st1" d="M50.3,67.1c-9.1,0-16.5,7.4-16.5,16.5c0,3.5,1.1,6.7,2.9,9.4H24.9v7.1h25.5c9.1,0,16.5-7.4,16.5-16.5
	C66.8,74.5,59.4,67.1,50.3,67.1z M50.3,93c-5.2,0-9.4-4.2-9.4-9.4c0-5.2,4.2-9.4,9.4-9.4c5.2,0,9.4,4.2,9.4,9.4
	C59.7,88.8,55.5,93,50.3,93z"/>
</svg>
