<svg version="1.1" id="_ÎÓÈ_1" xmlns="http://www.w3.org/2000/svg" x="0" y="0" viewBox="0 0 160 141.2" xml:space="preserve"><style>.st1{fill:#02819b}</style><path d="M121.4 141.2L12.1 64.4C-.7 55.5-3.8 37.8 5.2 25c1.9-2.7 4.2-5.1 6.9-6.9L38.6-.4l109.3 76.8c12.8 9 15.9 26.7 6.9 39.5-1.9 2.7-4.2 5-6.9 6.9l-26.5 18.4zM38.6 11.9L17.9 26.3c-8.2 5.8-10.2 17.1-4.5 25.4 1.2 1.7 2.7 3.3 4.5 4.5l103.5 72.7 20.6-14.4c8.2-5.8 10.2-17.1 4.5-25.4-1.2-1.7-2.7-3.2-4.5-4.5L38.6 11.9z" fill="#4bc0c8"/><path class="st1" d="M38.5 128.8l-20.6-14.5c-8.2-5.8-10.2-17.1-4.5-25.4 1.2-1.7 2.7-3.2 4.5-4.5l53.3-37.3-8.8-6.1-50.3 35.2c-12.8 9-15.9 26.6-6.9 39.4 1.9 2.7 4.2 5.1 6.9 6.9L38.5 141l32.7-22.9-8.8-6.2-23.9 16.9zM147.9 18.2L121.5-.4 88.8 22.5l8.8 6.2L121.5 12l20.6 14.5c8.2 5.8 10.2 17.1 4.5 25.4-1.2 1.7-2.7 3.2-4.5 4.5L88.8 93.6l8.8 6.2 50.3-35.2c12.8-9 15.9-26.6 6.9-39.4-1.8-2.8-4.2-5.1-6.9-7z"/><path transform="rotate(-34.979 42.066 61.348)" class="st1" d="M16.7 56.3h50.7v10.1H16.7z"/><path class="st1" d="M136.8 60l-20.2 14.2 5.8 8.3 21-14.7c-2.3-2.6-4.5-5.2-6.6-7.8z"/></svg>