<?xml version="1.0" encoding="utf-8"?>
<!-- Generator: Adobe Illustrator 25.4.1, SVG Export Plug-In . SVG Version: 6.00 Build 0)  -->
<svg version="1.1" id="Layer_1" xmlns="http://www.w3.org/2000/svg" xmlns:xlink="http://www.w3.org/1999/xlink" x="0px" y="0px"
	 width="128px" height="128px" viewBox="0 0 128 128" style="enable-background:new 0 0 128 128;" xml:space="preserve">
<style type="text/css">
	.st0{fill:#1C2951;}
	.st1{fill:#FDDB7E;}
	.st2{fill:#FEC436;}
	.st3{fill:#CF9105;}
	.st4{fill:#E7A706;}
	.st5{fill:#FBC028;}
	.st6{fill:#FBC122;}
	.st7{fill:#FCBE18;}
	.st8{fill:#D49605;}
	.st9{fill:#FDC021;}
	.st10{fill:#FAC127;}
	.st11{fill:#FBC123;}
	.st12{fill:#FDE198;}
	.st13{fill:#FDC328;}
	.st14{fill:#F9B805;}
	.st15{fill:#CF9205;}
	.st16{fill:#ECAC04;}
	.st17{fill:#F9D36D;}
	.st18{fill:#DA9B05;}
	.st19{fill:#EEAE05;}
	.st20{fill:#FDD366;}
	.st21{fill:#EDAC05;}
	.st22{fill:#F9D77A;}
	.st23{fill:#E6AB1E;}
	.st24{fill:#DC9D08;}
	.st25{fill:#FCD266;}
	.st26{fill:#FAD160;}
	.st27{fill:#F5B209;}
	.st28{fill:#FDE8AE;}
	.st29{fill:#E9AD20;}
	.st30{fill:#FACF62;}
	.st31{fill:#D29309;}
	.st32{fill:#DC9C05;}
	.st33{fill:#F5B405;}
	.st34{fill:#FDD05E;}
	.st35{fill:#F9C94B;}
	.st36{fill:#A67303;}
	.st37{fill:#FCD265;}
	.st38{fill:#D89A07;}
	.st39{fill:#D4970D;}
	.st40{fill:#D4970C;}
	.st41{fill:#EBB83B;}
	.st42{fill:#FDD05C;}
	.st43{fill:#EBAD0F;}
	.st44{fill:#E7C67C;}
	.st45{fill:#E9C674;}
	.st46{fill:#FBE9B8;}
	.st47{fill:#E4A81C;}
	.st48{fill:#E9C97F;}
	.st49{fill:#D6A22E;}
	.st50{fill:#FBDB87;}
	.st51{fill:#CF9209;}
	.st52{fill:#A37101;}
	.st53{fill:#A16F01;}
	.st54{fill:#F8F2DE;}
	.st55{fill:#BB8203;}
	.st56{fill:#FCF9EB;}
	.st57{fill:#B67F02;}
	.st58{fill:#926202;}
	.st59{fill:#E09E06;}
	.st60{fill:#E3B23B;}
	.st61{fill:#FCE393;}
	.st62{fill:#FAF2DB;}
	.st63{fill:#FACC3C;}
	.st64{fill:#FBC51D;}
	.st65{fill:#FDFBF6;}
	.st66{fill:#FBE6B1;}
	.st67{fill:#F4D37A;}
	.st68{fill:#FCF1D3;}
	.st69{fill:#FAE5A5;}
	.st70{fill:#F9B507;}
	.st71{fill:#C58F0F;}
	.st72{fill:#D69E1E;}
	.st73{fill:#FBC52B;}
	.st74{fill:#BA840A;}
	.st75{fill:#F1CA64;}
	.st76{fill:#FCDF88;}
	.st77{fill:#EBC360;}
	.st78{fill:#E0B244;}
	.st79{fill:#FCBB08;}
	.st80{fill:#F7CF4F;}
	.st81{fill:#F7CC44;}
	.st82{fill:#F6CE4F;}
	.st83{fill:#F6C32D;}
	.st84{fill:#A26901;}
	.st85{fill:#FCC41F;}
	.st86{fill:#FCC420;}
	.st87{fill:#F4D059;}
	.st88{fill:#F2C745;}
	.st89{fill:#F5D05A;}
	.st90{fill:#F5D35E;}
	.st91{fill:#F4C942;}
	.st92{fill:#F4C947;}
	.st93{fill:#FCC828;}
	.st94{fill:#EFC754;}
	.st95{fill:#F0C84C;}
	.st96{fill:#FCCA35;}
	.st97{fill:#F7D24E;}
	.st98{fill:#F4CC4D;}
	.st99{fill:#ECC953;}
	.st100{fill:#FBD45C;}
	.st101{fill:#F4CD4C;}
	.st102{fill:#FCC624;}
	.st103{fill:#FCCD35;}
	.st104{fill:#825502;}
	.st105{fill:#835603;}
	.st106{fill:#FCCE39;}
	.st107{fill:#FCCF42;}
	.st108{fill:#FCD343;}
	.st109{fill:#FCD44E;}
	.st110{fill:#FCDC6C;}
	.st111{fill:#FCD552;}
	.st112{fill:#FCD95F;}
	.st113{fill:#FCD962;}
	.st114{fill:#F9D64B;}
	.st115{fill:#F6D850;}
	.st116{fill:#FCE07F;}
	.st117{fill:#FDE27F;}
	.st118{fill:#724706;}
	.st119{fill:#FDDC6C;}
	.st120{fill:#8D5E02;}
	.st121{fill:#FAE082;}
	.st122{fill:#764903;}
	.st123{fill:#6A3D00;}
</style>
<circle class="st0" cx="64" cy="64" r="63"/>
<g>
	<path class="st1" d="M17.7,76.6l-0.2,0l-0.1-0.1c0-1.7,0-3.4,0-5.1c0.1,0,0.2,0,0.3,0C18.5,73.1,18.6,74.9,17.7,76.6z"/>
	<path class="st2" d="M26.1,39c1.3-1.2,3-1.9,4.4-3c2.4-1.4,3.2-3.8,4.4-6c0.5-0.8,0.5-1.9,1.4-2.5c6.5-3.1,13.6-4.7,20.1-7.8
		c0,0,0.1,0,0.2-0.1c0.1-0.1,0-0.2-0.2-0.2c-0.2-0.1-0.3-0.3-0.3-0.5c0.7-0.4,1.5-0.5,2.3-0.6c0.2,0.1,0.5,0.2,0.7,0.1
		c2.8-0.8,5.4-0.5,8,0.6c0.5,0.3,1,0.5,1.4,0.8c3.5,2.6,7.3,3.2,11.5,2.6c1.9-0.3,3.9-0.3,5.8,0.2c1.8,0.4,3.3,1.3,4.2,2.9
		c1.5,2.6,3.7,4.5,6.1,6.1c3.5,2.3,5.9,5.1,6,9.5c0,1.3,0.9,2.5,1.4,3.7c0.1,1.3,0.9,2.2,1.8,3c0.9,0.9,1.7,2,2.6,3
		c1.4,1.5,1.5,3.3,1.6,5.2c0.4,3.7-1.3,6.8-2.6,10c-0.6,1.1-0.7,2.2-0.6,3.4c0.5,0.8,0.9,1.5,0.8,2.5c0,0.6,0,1.3,0.6,1.7
		c1.8,5,2.1,9.9-0.8,14.7c-0.8-0.4-0.4-1.2-0.5-1.8c-1,1.5-2.4,2.6-4.1,3.1c-4.5,1.2-7,4.3-8.5,8.4c-0.3,0.7-0.5,1.3-0.8,2
		c-1.6,3.2-3.9,5.7-7,7.4c-0.6,0.2-1.2,0.5-1.8,0.7c-4.5,0.3-8.8-0.6-13.1-1.8c-3-0.9-5.8-0.9-8.5,1c-0.9,0.7-1.9,1-3,1.2
		c-0.2,0-0.4,0.1-0.2,0.1c0,0,0.1,0.1,0.1,0.1c0.2,0.1,0.4,0.1,0.6,0.2c0.4,0.2,1.3,0.2,1.1,0.9c-0.2,0.7-1,0.5-1.6,0.4
		c-1.9-0.3-3.5-1.2-5.1-2.3c-0.9-0.8-2-1.4-3-2c-2.7-1.7-5.7-2.3-8.7-3c-4.3-1-8.4-2.8-11.1-6.9c0.2,0.6,0.5,1,0.8,1.4
		c0.3,0.4,0.7,0.9,1,1.3c0.5,1,2.1,1.4,1.9,2.9c-1.2,0.1-1.8-0.8-2.4-1.6c-1.9-2.2-3.6-4.5-3.8-7.5c-0.5-1-1-2-1.5-3
		c-0.2-1.9-1.4-3.3-2.7-4.5c-2.4-2.3-4.6-4.8-6.1-7.8c-1.4-1.7-0.9-3.5-0.3-5.3c0.7-0.1,0.6-0.6,0.7-1.1c0.3-1.7,0.4-3.5,0.7-5.2
		c0.3-1.8,0.5-3.6,1.3-5.3c0.6-1.1,0.2-2.3,0.3-3.3c0-0.4-0.4-0.1-0.1-0.2c0.1,0,0.1,0,0.1,0.1c0,0.9,0.1,1.8-0.1,2.7
		c-0.1,0.4-0.3,0.9-0.8,0.3c0-3.3-0.9-6.5-0.3-9.9c0-0.3,0-0.6-0.2-0.9c0-0.6,0-1.1,0.7-1.2c0.5,0.3,0.2,0.8,0.2,1.3
		c0-1.9,0.9-3.4,2-4.9c1.1-1.6,2.6-2.9,3.4-4.8C26.2,39.4,26.1,39.2,26.1,39z"/>
	<path class="st3" d="M85.6,106.8c3.1-1.5,5.1-4.1,6.8-7c1.2-2.3,1.8-4.8,3.6-6.8c0.9-0.9,1.9-1.5,3.1-1.8c0.7-0.2,1.5,0,0.6,1
		c-1.6,1.3-2.6,3-3.2,4.9c-0.7,2-1.5,4-3,5.6c-1.7,2.2-4,3.5-6.5,4.5C86.6,107.4,85.9,107.8,85.6,106.8z"/>
	<path class="st4" d="M99.8,92.3c0.3-1-0.2-0.8-0.8-0.6c-2.7,0.9-3.9,3-5,5.4c-0.4,0.9-0.4,2.2-1.5,2.8c1.5-5,3.8-9.3,9.4-10.7
		c2-0.5,3.7-1.8,4.5-4.1c0.8,1.1-0.1,2.2,0.4,3.2c-0.8,1.4-1.9,2.2-3.5,2.5C102,91,100.9,91.7,99.8,92.3z"/>
	<path class="st5" d="M107.5,73.5c-0.1,0.2-0.2,0.6-0.3,0.4c-0.3-0.4-0.5-0.9-0.4-1.3c0.2-1.3-0.4-2.2-1.1-3c0.7-0.9,0.6-2,1-2.9
		c1.4-2.9,2.9-5.8,2.6-9.1c0-0.6,0.1-1.2-0.4-1.7c0.2-3.6-2.1-5.9-4.3-8.2c-0.6-0.7-1.8-1.4-1.2-2.7c1.3,2.5,3.6,4.2,5.1,6.6
		c2,3.2,2.7,6.6,1.6,10.2c-0.7,2.4-1.5,4.7-2.4,7C107.1,70.3,106.9,71.9,107.5,73.5z"/>
	<path class="st6" d="M51.6,105.3c0.8,0.8,2,1.1,2.6,2.2c0.1,0.2,0.1,0.3,0,0.4c-2.2-1.9-4.9-2.3-7.7-2c-6.6,0.6-15-4.5-17.3-10.7
		c-0.4-0.9-0.2-1.9-0.3-2.9c0.3-0.8,0.4-0.5,0.4,0.1c0.2,3.9,2.8,6.4,5.5,8.8c0.1,0.1,0.2,0,0.4,0.1c0.7-0.3,1.1,0.1,1.7,0.4
		c3.4,2.2,7.1,3.2,11.1,3.1C49.3,104.6,50.4,105.3,51.6,105.3z"/>
	<path class="st7" d="M18.5,71.8c-0.5,1.8-1,3.6,0.7,5.1c-0.3,1.8,0.8,3,1.6,4.3c0.4,0.6,1.2,1.1,0.5,2c-1.9-1.8-3.5-3.9-3.7-6.7
		c0-1.7,0-3.5,0-5.2c0.2-3.5,0.6-7,2-10.3c0.8-1.9,0.4-3.8,0.2-5.8c-0.2-2.1-0.3-4.1,0.1-6.1c0.1,0.3,0.3,0.5,0.3,0.8
		c0.1,3.4,0.3,6.8,0.4,10.1c0.2,0.2,0.3,0.5,0.2,0.8c-1.3,3.2-1.8,6.5-2,9.9C18.9,71.2,18.8,71.5,18.5,71.8z"/>
	<path class="st8" d="M21.4,83.3c-0.5-1.9-2.3-3.1-2.6-5c-0.1-0.6-0.6-1.2,0.5-1.3c1.3,2.7,3.2,4.9,5.4,7c1.2,1.1,2.3,2.3,3,3.8
		c0.2,0.5,0.8,1,0,1.6C25.9,86.9,23.1,85.6,21.4,83.3z"/>
	<path class="st9" d="M55.9,18.9c0.1,0.1,0.3,0.2,0.4,0.4c-0.5,0.9-1.5,0.9-2.4,1.2c-2.3,0.8-4.5,1.7-6.7,2.8
		c-1.8,0.9-3.7,1.6-5.7,1.7c-2.1,0.1-3.6,1.6-5.2,2.8c-1,1.9-2,3.9-3.1,5.8c-0.5,0.9-1.2,1.7-1.9,2.6c-0.3,0.4-0.6,0.3-0.9-0.1
		c2.1-2.1,3.5-4.6,4.6-7.3c1.4-3.2,3.7-5.1,7.4-5.1c1.8,0,3.4-0.8,5-1.6C50.2,20.7,53,19.5,55.9,18.9z"/>
	<path class="st10" d="M54.2,108c0-0.1,0-0.3,0-0.4c2.1,0.9,4,2.4,6.7,2.1c-0.5-0.3-0.9-0.5-1.2-0.6c3.2-1,6.3-2.5,10-1.4
		c3,1,6.2,1.7,9.5,1.6c0.5,0,1.1,0,1.5,0.5c-2.6,0.7-5.3,0.6-7.8-0.3c-3.6-1.2-7.1-1.2-10.6,0.4C59.1,111.3,56.6,109.6,54.2,108z"/>
	<path class="st11" d="M80.5,109.7c-0.5,0-1,0-1.6,0c0-0.7,0.5-0.7,0.9-0.8c1.5-0.3,2.8-0.9,4.2-1.4c0.5-0.2,1-0.5,1.5-0.7
		c0.4,0.6,0.8,0.2,1.3,0c2.6-0.8,4.7-2.4,6.7-4.1c0,0.9-0.7,1.2-1.2,1.7C89,107.5,85.1,109.3,80.5,109.7z"/>
	<path class="st12" d="M23.2,44.5c-1.1,1.6-1.9,3.3-2.5,5.1c0-0.5-0.1-1.1-0.1-1.6c-0.5-0.3-0.2-0.6,0-0.9c1-2.3,1.8-4.6,4-6.1
		c0.9,0.3,0.3,0.7,0.1,1.1C24.3,42.9,23.5,43.6,23.2,44.5z"/>
	<path class="st13" d="M67,19c-0.2,0.2-0.4,0.3-0.6,0.2c-1.9-0.9-3.8-1.2-5.9-0.6c-0.7,0.2-1.5,0.3-2.2-0.3C61.2,17.5,64.2,17,67,19
		z"/>
	<path class="st7" d="M24.7,41.2c-1.9,1.6-2.8,3.9-4,5.9c0.6-3.5,2.8-6,5.5-8.1c0.1,0.1,0.3,0.3,0.4,0.4
		C26.2,40.3,25.5,40.8,24.7,41.2z"/>
	<path class="st14" d="M80.1,28.1c11.8,5.4,19.4,14.3,22.8,26.9c0.3,1.1,0.4,2.2,0.6,3.4c-0.5,0.7,0.4,1.5-0.3,2.2
		c-1,0.1-0.8-0.8-1.1-1.3c-0.4-7.5-4.2-13.5-8.5-19.3c-0.6-0.8-1.3-1.6-2.3-2.1c-1-0.4-1.6-1.4-2.6-1.9c-5-4.1-10.6-6.9-17-8.2
		c-3.8-0.8-7.7-0.9-11.5-0.5c-7.9,0.8-14.8,3.9-20.9,9c-2.5,2.1-4.5,4.6-6.4,7.3c-0.4,0.6-0.8,1.3-1.3,1.9c-0.8,0.9-1.3,0.6-1.4-0.5
		c0-0.3,0-0.5,0.1-0.8c1.3-2.2,2.8-4.3,4.7-6c1.4-1.7,3-3,4.5-4.5c4.1-3.2,8.6-5.7,13.6-7.1c1.4-0.3,2.7-0.7,4.1-0.8
		c1-0.2,2-0.2,2.9-0.4c6-0.6,11.9,0.1,17.6,2.2C78.6,27.8,79.2,28.2,80.1,28.1z"/>
	<path class="st15" d="M30.5,44.7c0,0.3,0,0.7,0.2,0.8c0.2,0.2,0.4-0.1,0.5-0.3c0.5-0.6,0.7-1.5,1.5-1.9c0.3-0.3,0.5-0.7,0.8-0.9
		c0.6-0.4,0.8-0.2,0.8,0.5c-0.6,1.8-1.8,3.3-2.6,5c-2.7,5.6-4,11.5-3.3,17.7c0.1,0.7,0.1,1.5-0.2,2.1c-0.9,0.5-1.2,1.5-1.6,2.3
		c-0.4,0.2-0.7,0.2-1.1,0c-0.5-0.6-0.6-1.2-0.4-1.9c-0.1-1.8-1-3.6-0.7-5.5c0.2-1.3,0.2-2.6,1.1-3.7c0.3,0.2,0.4,0.4,0.5,1
		c0.5-3.7,1.4-7,2.6-10.2c0.3-0.7,0.2-1.4,0-2.1C28.8,46.5,28.9,45.2,30.5,44.7z"/>
	<path class="st16" d="M38.1,34.2c-0.4,0.2-0.7,0.4-1.1,0.5c-0.6,0.2-0.8,0-0.3-0.5c2-4,5.3-6.6,9.3-8.3c0.2-0.1,0.4-0.3,0.6-0.4
		c3.4-1.1,6.6-2.6,10.1-3.4c3.2-0.7,6.3-1,9.4,0.4c2,0.9,4.1,1.5,6.1,2.5c-1.7-0.2-3.4-0.4-5.1-0.6c-3.8-0.6-7.6-1-11.5-0.1
		c-4.9,1.1-9.2,3.3-13.3,6.2c-0.8,0.6-1.6,1.3-2.2,2.2c-0.2,0.3-0.4,0.6-0.6,0.9C39.1,33.9,38.7,34.2,38.1,34.2z"/>
	<path class="st17" d="M69.2,103.5c-0.1,0.1-0.2,0.2-0.3,0.2c-8.9,0.9-17.3-0.7-25.1-5.4c-0.1-0.1-0.1-0.2-0.2-0.3
		c0.6-1.1,1.2-0.2,1.8,0c2,0.8,4,1.7,6.2,2.1c1.2,0.3,2.4,0.3,3.6,0.1c2.9,0.5,5.8,0.8,8.7,1.1C65.4,102.8,67.5,102.5,69.2,103.5z"
		/>
	<path class="st18" d="M39.6,32.8c1.1-2.5,3.6-3.6,5.7-4.8c2.8-1.7,5.9-3,9.2-3.8c3-0.7,5.9-1.2,8.9-0.5c0.8,0.2,1.6,0.1,2.4,0.1
		c0.5,0,1.1-0.1,1.2,0.7c-3.6,0-7.3-0.1-10.9,0.8c-0.3,0.1-0.5,0.2-0.8,0.4c-0.7,1.2-2.2,0.7-3.2,1.3c-3.5,1.1-6.8,2.8-9.9,4.9
		C41.4,32.2,40.7,33,39.6,32.8z"/>
	<path class="st19" d="M29.5,84.5c-0.1,0-0.4,0.2-0.4,0.1c-2.5-3-5.6-5.6-6.9-9.4c-1.3-3.8-0.9-7.6,0.5-11.3
		c0.3-0.8,0.6-1.5,1.3-2.3c0,1.5,0,2.9,0,4.4c-1,4-0.5,7.8,1.4,11.3c0.5,1,0.7,2.2,2,2.7c1.1,1.1,1.6,2.7,2.3,4
		C29.6,84.2,29.6,84.4,29.5,84.5z"/>
	<path class="st20" d="M77,103.1c5.3-1.9,9.7-4.7,14.1-7.7C90.9,100.2,81.9,105.3,77,103.1z"/>
	<path class="st21" d="M84.1,107.5c-1.1,1.1-2.6,1.4-4,1.8c-3.7-0.2-7.3-1.6-10.9-2.3c-2.3-0.4-4.6-0.3-6.8,0.7
		c-1.1,0.5-2.3,0.7-3.4,1.1c-0.4-0.2-0.9-0.3-1.4-1.1c2.6,0.3,4.4-1.2,6.3-2.2c1.9-1,4.1-0.9,6.2-0.3
		C74.6,106.7,79.3,107.6,84.1,107.5z"/>
	<path class="st22" d="M69.2,103.5c-1.8-0.2-3.8-0.1-5.1-1.8c0.5-0.6,1.2-0.5,1.9-0.5c5.2-0.2,10.2-1.3,15.1-2.8
		c0.8-0.2,1.6-0.5,2.5-0.2c0.5,1.3-0.5,1.2-1.2,1.3c-3.6,1.6-7.3,3.1-11.2,3.8C70.5,103.4,69.8,103.4,69.2,103.5z"/>
	<path class="st23" d="M51.6,105.3c-1.2,0.5-2.4-0.3-3.6,0c-1.8-0.5-3.6-0.8-5.4-1.2c-3.4-0.7-6.1-2.4-8.7-4.7
		c-0.3-0.2-0.5-0.5-0.9-0.7c-1.1-1.1-1.7-2.4-2.6-3.7c0.9-0.3,1.2,0.3,1.4,0.7c3.3,4.8,8.4,6.3,13.8,7.2
		C47.9,103.3,49.7,104.4,51.6,105.3z"/>
	<path class="st24" d="M59,108.9c3.9-2.5,7.9-3.2,12.5-1.9c2.6,0.7,5.2,1.8,8,1.7c0.2,0,0.4,0.4,0.6,0.6c-0.4,0-0.8,0-1.1,0.4
		c-3.5,0.3-6.8-0.8-10.1-1.7c-1.6-0.4-3.1-0.4-4.6,0.1c-1.5,0.5-3,1-4.6,0.9C59.4,109,59.2,109,59,108.9z"/>
	<path class="st25" d="M102.7,75.4c0.4,0,0.9-1.3,1.1,0c0.3,3.7-0.7,10.4-5.9,12.6c0.1-1.5,0.9-2.5,1.5-3.6c0.8-1.5,1.9-2.8,1.9-4.6
		C100.9,78.1,101.6,76.7,102.7,75.4z"/>
	<path class="st26" d="M54.9,100.6c-1.9,0.9-3.6,0.1-5.4-0.4c-1.7-0.5-3.3-1.3-5-2c-0.3-0.1-0.6-0.5-1-0.1c-3.7-1.8-6.8-4.3-9.5-7.3
		c0.1-0.2,0.2-0.4,0.5-0.5c0.4,0,0.6,0.2,0.9,0.4c1.8,1.8,3.8,3.3,6.1,4.5c0.9,0.5,1.9,0.8,2.9,0.8C47.9,97.9,51.6,99,54.9,100.6z"
		/>
	<path class="st27" d="M82.3,99.5c0.5-0.3,1.2-0.5,1.5-1.1c1.5-1.8,3.8-2.6,5.5-4.2c0.7-0.6,1.3-1.2,1.8-1.9c0.6-1,1.6-1.7,2.3-2.6
		c2.3-3,4.3-6.1,5.6-9.7c0.4-0.4,0.7-1,0.9-1.5c0.3-0.3,0.4-0.8,1-0.5c0.3,1.5-0.7,2.5-1.2,3.8c-0.3,0.9-1.1,1.7-1.1,2.7
		C95,91,89.8,95.9,83.4,99.6C83,99.9,82.6,100,82.3,99.5z"/>
	<path class="st28" d="M36.4,27.7c1.1-2,3-3,5.2-3.2c1.9-0.1,3.6-0.7,5.2-1.5c3.1-1.6,6.4-2.7,9.7-3.7c0.4,0.1,0.8-0.4,1.3,0
		c-1.9,1.5-4.3,1.8-6.4,2.9c-3.2,1.7-6.6,3-10.2,3.5c-1.3,0.2-2.6,0.9-3.7,1.9C37.1,27.8,36.8,28.3,36.4,27.7z"/>
	<path class="st29" d="M25,56.8c-0.4,0.1-0.8,0.2-0.7-0.3c0.5-2-0.3-3.9-0.1-5.8c0.3-4,2.3-6.8,5.2-9.1c0.8,0.5,0.4,1.2,0.1,1.7
		c-1.5,2.7-2.6,5.7-3.7,8.6c-0.2,0.7-0.3,1.3-0.1,1.9C25.6,54.8,25.7,55.9,25,56.8z"/>
	<path class="st30" d="M104.1,62c0.3-4.9-1.2-9.4-3-14.1c0.9,0.4,1.3,0.9,1.6,1.5c0.3,0.6,0.8,1,1.1,1.6c2,3.5,2,7.2,0.8,11
		c0,0.2-0.4,0.2-0.6,0.3c-0.1-0.1-0.1-0.1-0.1-0.2C104.1,62,104.1,62,104.1,62z"/>
	<path class="st31" d="M104.1,62c0,0.1,0,0.2,0,0.3c-0.1,4.4-0.4,8.8-1.5,13.1c-0.5,1.5-1,2.9-1.4,4.4c-0.9,1.6-1.7,3.2-2.6,4.7
		C98,83.9,98.8,83.4,99,83c0.7-1.7,1.7-3.2,1.9-5c-0.5-0.9,0.3-1.8,0.3-2.7c0.3-1.5,1.1-2.8,1.1-4.3c0-1.2,0.4-2.3,0.5-3.5
		c0.4-2,0.3-4,0.1-5.9c0-0.3,0-0.6,0.2-0.9c0.2-0.7-0.3-1.6,0.4-2.3C104,59.5,103.5,60.8,104.1,62z"/>
	<path class="st32" d="M27.2,80.3c-0.3,0.2-0.6,0.2-0.8,0c-1.8-3-3.4-6-3.4-9.7c0-1.2,0.2-2.4,0.2-3.5c0-0.5,0-1,0.7-1.1
		c0,1.7,0.1,3.5,0.7,5.2c0.5,0.4,0.5,1,0.8,1.5C26.1,75.1,26.8,77.7,27.2,80.3z"/>
	<path class="st33" d="M46.5,25.5c-0.8,1.2-2.1,1.7-3.3,2.4c-1.9,1-3.6,2.2-4.6,4.2c-0.4,0.8-1,1.7-1.9,2.1c0.7-1.8,1.5-3.7,2.2-5.5
		c0.5-1.3,1.4-2,2.9-2.2C43.4,26.3,45,25.9,46.5,25.5z"/>
	<path class="st34" d="M18.5,71.8c-0.1-3.7,0.3-7.2,2-10.6c0.2-0.3,0.2-0.7,0.2-1.1c0.8-1.4,0-3,0.5-4.6c1,2,0.6,3.8,0,5.5
		c-0.8,2.4-1,4.9-1.3,7.4c-0.1,1.1-0.3,2.1-0.5,3.2C19.2,72.5,18.8,72.1,18.5,71.8z"/>
	<path class="st35" d="M25,56.8c0.1-1.1,0.3-2.2,0.4-3.3c-0.4-1.1,0.5-1.9,0.8-2.9c0.9-3,2.3-5.8,4-8.5c0.4-0.6,0.7-1.3,1.5-1.5
		c0.8,0.2,0.6,0.6,0.3,1.1c-0.5,0.8-1,1.5-1.4,2.3c0,0.2,0,0.4,0,0.6c-0.9,0.8-1.3,2-1.8,3c0,0.7-0.1,1.4-0.4,2.1
		c-0.8,1.9-1.4,3.9-1.9,5.9c-0.2,0.7-0.2,1.5-1,1.8C25.1,57.4,25,57.1,25,56.8z"/>
	<path class="st36" d="M25.4,57.6c1-3.3,1.7-6.7,3.3-9.8c0.4,0.5,0.7,0.9,0.4,1.6c-1.3,3.4-2.4,6.8-2.7,10.4c0,0.4-0.3,0.8-0.6,1.4
		c-0.6-0.8-0.3-1.6-0.4-2.3C25.4,58.5,25.4,58.1,25.4,57.6z"/>
	<path class="st37" d="M84.1,24.1c1.3,0.4,2.6,0.7,3.6,1.7c0.5,0.5,0.6,1.1,0.3,1.6c-0.3,0.6-0.9,0.7-1.6,0.3c-1-0.5-2.1-1-3.1-1.6
		c-0.5-0.3-1.1-0.6-0.8-1.2C82.7,24.3,83.3,24,84.1,24.1z"/>
	<path class="st38" d="M80.1,28.1c-0.3,0.4-0.7,0.3-1.1,0.1c-6.1-2.6-12.4-2.9-18.9-2.7c-0.1-0.1-0.2-0.2-0.1-0.3
		c0-0.1,0.1-0.1,0.1-0.1c6.2-1,12.2,0,18,2.1C78.7,27.5,79.4,27.8,80.1,28.1z"/>
	<path class="st39" d="M33.1,98.8c1.8,1.2,3.7,2.3,5.5,3.5c0.7,0.4,1.3,0.9,2.1,0.9c2.3,0.1,4.3,1.7,6.7,1.4
		c0.4-0.1,0.6,0.3,0.7,0.7c-4.3,0.1-8.3-1-11.8-3.6c-0.3-0.2-0.6-0.3-0.9-0.4C34.5,100.5,33.8,99.6,33.1,98.8z"/>
	<path class="st40" d="M31.7,40.9c-2.9,3.8-4.8,8.2-6.3,12.7c-0.7-0.6-0.2-1.2,0-1.8c1.1-3.2,2.2-6.3,4-9.2c0.2-0.4,0.1-0.7,0-1
		c1.3-1.1,2.7-2.2,4-3.3C33.9,39.8,32.6,40.2,31.7,40.9z"/>
	<path class="st39" d="M108.9,55.8c1.4,1.6,0.7,3.5,0.5,5.3c-0.1,2.2-1.7,3.9-2.4,6c-1.2,0.3-0.9-0.4-0.7-1.1c0.5-1.3,1-2.6,1.5-3.8
		C108.7,60.1,109.1,58,108.9,55.8z"/>
	<path class="st41" d="M31.7,40.9c0.3-1.1,1.7-1.4,1.8-2.7c0.6,0.3,1,0,1.4-0.3c0.1,0.1,0.2,0.2,0.3,0.3c-1.6,2-3.1,4-4.7,5.9
		c-0.2-0.9,0.5-1.4,0.8-2.1C31.5,41.7,32.2,41.4,31.7,40.9z"/>
	<path class="st42" d="M24.7,41.2c0.5-0.7,1.1-1.3,1.8-1.8c0.5,0.1,0.8,0.3,0.4,0.8c-1.2,1.4-2.5,2.9-3.7,4.3
		C23,43,24.9,42.6,24.7,41.2z"/>
	<path class="st43" d="M100.7,41.2c-1.1-1.3-1.2-2.9-1.1-4.4C100.6,38,100.8,39.6,100.7,41.2z"/>
	<path class="st44" d="M35.2,38.2c-0.1-0.1-0.2-0.2-0.3-0.3c1.1-1.2,2.1-2.4,3.2-3.7c0.2-0.4,0.6-0.7,1.1-0.7c0.2,0,0.4,0.2,0.4,0.4
		C38.2,35.4,36.5,36.6,35.2,38.2z"/>
	<path class="st45" d="M52,26.6c0.9-0.8,2.3-0.5,3.3-1.1c0.6,0,1.2,0,1.9,0c0.1,0.1,0.1,0.2,0.1,0.3c0,0.1-0.1,0.1-0.1,0.1
		c-1.4,0.3-2.7,0.7-4.1,1C52.8,26.6,52.2,27,52,26.6z"/>
	<path class="st46" d="M29.5,84.5c0-0.1,0-0.2,0-0.3c0.1-0.2,0.2-0.5,0.6-0.5c1.4,1.2,2.2,2.8,2.9,4.4c-0.1,0.3-0.2,0.5-0.5,0.4
		C31.4,87.2,30.4,85.8,29.5,84.5z"/>
	<path class="st47" d="M106.3,66c0,0.5,0,1.1,0.7,1.1c-0.6,0.8,0,2.2-1.4,2.6C105.6,68.3,105.4,67.1,106.3,66z"/>
	<path class="st48" d="M25,72.5c-0.4-0.4-0.3-0.9-0.4-1.4c0.2-1-0.3-2,0.4-3c0.1,0.6,0.3,1.2,0.4,1.8c0.3,0.3,0.3,0.7,0.3,1.1
		C25.5,71.6,25.5,72.2,25,72.5z"/>
	<path class="st49" d="M57.1,25.9c0-0.1,0-0.3,0-0.4c0.9-0.3,1.9-0.5,2.9-0.4c0,0.1,0,0.3,0,0.4C59.1,26,58.1,25.8,57.1,25.9z"/>
	<path class="st50" d="M32.4,88.5c0.1-0.1,0.2-0.2,0.3-0.4c0.2-0.1,0.3-0.1,0.5,0c0.5,0.7,1.4,1.1,1.4,2.2c-0.1,0.1-0.3,0.3-0.4,0.4
		C33.6,90,33,89.3,32.4,88.5z"/>
	<path class="st51" d="M91.4,37.6c1.7,0.5,2.5,2,3.4,3.3c3.3,4.7,6.4,9.5,7.3,15.3c0.1,0.9,0.1,1.8,0.1,2.7c0.6,2.6,0.8,5.3,0,7.9
		c-0.4,0.7-0.9,0.4-1.4,0.1c-0.1-0.1-0.3-0.3-0.3-0.5c-0.3-1.3-0.2-2.5-0.1-3.8c0.2-7.4-2.3-14-6.6-19.9c-0.5-0.7-1.1-1.3-1.4-2.1
		C92.4,39.5,91.3,38.7,91.4,37.6z"/>
	<path class="st52" d="M60,26.9c2.6-0.7,5.2-0.5,7.7-0.2c8.1,0.7,15.3,3.8,21.5,9c0,0.6-0.4,0.6-0.8,0.7c-1,0-1.6-0.8-2.4-1.3
		c-6.3-4.5-13.3-6.8-21-7c-1.5,0-3,0.3-4.5-0.3c0,0-0.1-0.1-0.1-0.1C61.4,26.9,59.8,27.4,60,26.9z"/>
	<path class="st53" d="M60,26.9c0.4,0,0.8,0.1,1.3,0.1c-0.3,0.3-0.6,0.5-0.9,0.7c-0.2,0.6-0.8,0.7-1.3,0.8
		c-6.8,0.9-12.9,3.6-18.2,7.9c-0.3,0.3-0.7,0.5-1.1,0.6c-0.5-0.1-1-0.2-0.9-0.9c5.6-4.9,12.1-7.9,19.4-9.1
		C58.9,26.9,59.4,27,60,26.9z"/>
	<path class="st54" d="M52,26.6c0.4,0.1,0.8-0.1,1.1,0.4c-4.9,1.5-9.3,3.9-13.4,7c-0.1-0.1-0.3-0.3-0.4-0.4c0.1-0.3,0.1-0.6,0.4-0.7
		C43.6,30.5,47.4,27.7,52,26.6z"/>
	<path class="st55" d="M38.9,36.1c0.2,0.2,0.5,0.5,0.7,0.7c-1.7,2.1-3.1,4.4-5.5,5.8c-0.8-0.3-0.9,0.7-1.5,0.7
		C34.3,40.5,36.4,38.2,38.9,36.1z"/>
	<path class="st56" d="M101.9,67c0.5-2.7,0.5-5.5,0.4-8.2c0.2,0.6,0.5,1.2,0.7,1.8c0,0.2,0,0.4,0,0.7c0.3,2.1,0.2,4.1,0.1,6.2
		c-0.2,1.2-0.3,2.4-0.5,3.6c-1.1-0.3-0.6-1.3-0.9-2C101.6,68.4,101.4,67.7,101.9,67z"/>
	<path class="st57" d="M88.5,36.1c0.3,0,0.6-0.1,0.7-0.3c0.7,0.6,1.5,1.2,2.2,1.8c0.3,0.9,1.5,1.3,1.1,2.5
		C90.5,39.4,89.2,38,88.5,36.1z"/>
	<path class="st58" d="M88.5,36.1c1.2,1.5,2.6,2.8,4,4c4.4,5.3,7.4,11.3,8.3,18.2c0.3,2.6,0.1,5.3,0.1,8c-1.2-0.2-0.8-1.2-0.8-1.9
		c0-5.8-1.4-11.3-4.1-16.4c-3.3-6.2-7.9-11-14.1-14.3c-11.4-6.2-23-6.1-34.4-0.1c-1.1,0.6-2.3,1.2-3,2.3
		C38,40.6,33.5,46.7,31.1,54.2c-1.9,5.9-2,11.9-0.9,17.9c0,0.6,0,1.2-0.7,1.5c-0.9-0.5-1.1-1.4-1.3-2.2c0-1.2-1-2.4-0.3-3.7
		c-0.4-4.4-0.4-8.7,0.7-13.1c1.1-4.4,3.1-8.3,5.5-12.1c1.8-2,3.3-4.2,5.5-5.8c5.2-4.5,11.2-7.4,18-8.6c0.9-0.2,2,0.1,2.8-0.5
		c4.6-0.1,9.2,0,13.6,1.2c4.9,1.3,9.4,3.4,13.3,6.6C87.7,35.8,88,36.1,88.5,36.1z"/>
	<path class="st59" d="M25.4,71.1c0-0.4,0-0.7,0-1.1c0.4,0,0.7,0,1.1,0c0.9,0.7,0.7,1.9,1,2.8c0.3,0.9,0.5,1.7,0.7,2.6
		c0.1,0.5,0.4,1.1,0.1,1.6c-0.4,0.4-0.8,0.5-1.3,0.4C25.7,75.5,25.4,73.4,25.4,71.1z"/>
	<path class="st60" d="M27.2,72.9c-0.5-0.9-0.5-2-0.7-2.9c0.1-1-0.5-2.4,1.5-2.2c0.2,1.2,0.5,2.4,0.7,3.7
		C28.3,72.1,27.7,72.5,27.2,72.9z"/>
	<path class="st61" d="M89.5,94.4c-1.6,1.7-3.6,3-5.7,4.1c-2.5-0.2-4.6,1.3-6.9,1.6c-4.3,0.7-8.4,1.8-12.8,1.6
		c-3.1,0.1-6.1-0.3-9.1-1.1c-3.8-0.8-7.3-2.4-10.6-4.4c-1.5-0.5-2.9-1.1-3.8-2.5c0.5-1.2,1.1-0.4,1.7-0.1c1,0.5,1.6,1.7,3,1.3
		c1.7,0.4,3.1,1.4,4.6,2.1c2,1,4.1,1.7,6.3,2.2c11.3,2.5,21.6,0.5,30.6-6.7c4.8-3.8,8.5-8.6,10.9-14.3c0.4-0.9,0.5-1.9,1.6-2.3
		c1.9,0.4,1.9,0.5,1,2.9c-0.1,0.5-0.2,1.1-0.8,1.4c-1,0.1-0.7,1.1-1,1.6c-1.6,2.7-3.3,5.5-5.6,7.7c-0.9,0.9-1.8,1.8-2.7,2.7
		c-1.4,1.4-3,2.5-4.6,3.6C86.8,95.3,87.8,93.7,89.5,94.4z"/>
	<path class="st62" d="M25.4,71.1c0.6,2.1,0.9,4.2,1.8,6.2c1.1,2.1,2.6,4,2.7,6.4c-0.1,0.1-0.3,0.3-0.4,0.4
		c-0.7-1.3-1.5-2.6-2.2-3.9c-1.3-2.4-1.5-5.2-2.2-7.8C25.2,72.1,24.8,71.5,25.4,71.1z"/>
	<path class="st63" d="M40.7,93.7c1.2,0.8,2.4,1.7,3.6,2.5c-1.8,0.5-3-0.8-4.3-1.5c-1.8-1-3.6-2.2-4.8-3.9c0.7-0.8,1.3-0.5,2,0.1
		c0.6,0.5,1,1.1,1.8,1.3C39.8,92.4,40.5,92.8,40.7,93.7z"/>
	<path class="st64" d="M39,92.6c-0.9,0-1.4-0.7-1.9-1.2c-0.5-0.6-1.1-0.9-1.9-0.5c-0.2-0.1-0.5-0.3-0.7-0.4
		c-0.4-0.8-1.3-1.2-1.5-2.1c0.6-1.2,1.4-0.3,2.1-0.2C36.4,89.6,38.3,90.5,39,92.6z"/>
	<path class="st65" d="M92.5,89.3c2.5-2.9,4.6-6,6.4-9.4c0.1-0.1,0.1-0.8,0.5-0.3c0.1,0.1,0,0.3,0,0.5c-1.3,3.7-3.3,6.9-5.8,9.9
		C93.2,89.8,92.5,90,92.5,89.3z"/>
	<path class="st66" d="M89.5,94.4c-1.9,0.1-3.2,1.9-5.7,2.1c2.3-1.8,4.2-3.2,6.1-4.7c0.6,0,1.2,0,1.4,0.7
		C90.9,93.4,90.2,93.9,89.5,94.4z"/>
	<path class="st67" d="M100.2,78.7c0-1,1.1-2.6-1.2-2.6c-0.4-0.7-0.1-1.3,0.3-1.9c0.5-0.5,1.2-0.7,1.9-0.4c0.5,0.4,0.1,1.1,0.4,1.6
		c-0.2,0.8-0.5,1.7-0.7,2.5C100.6,78.2,100.4,78.5,100.2,78.7z"/>
	<path class="st68" d="M91.3,92.5c-0.4-0.3-1.1-0.2-1.4-0.7c0.8-0.9,1.6-1.8,2.6-2.5c0.5,0,1.2-0.2,1.1,0.7
		C93,91.1,92,91.7,91.3,92.5z"/>
	<path class="st69" d="M101.5,75.4c-0.5-0.4-0.2-0.9-0.3-1.4c-0.5-0.6-0.1-1.3-0.1-1.9c0.1-0.9,0.3-1.9,0.5-2.8
		c0.1-0.3,0.3-0.5,0.6-0.5c0.2,0.7-0.3,1.5,0.3,2.2C102.7,72.6,101.8,73.9,101.5,75.4z"/>
	<path class="st14" d="M103.1,67.4c0-2.1,0-4.1-0.1-6.2C103.7,63.3,103.6,65.4,103.1,67.4z"/>
	<path class="st70" d="M34.9,88.2c-0.6,0.1-1.2-0.8-1.9,0c-0.1,0-0.2,0-0.3-0.1c-1-1.5-1.9-3-2.9-4.4c-0.9-2.1-2.1-4.1-2.7-6.4
		c0.4-0.1,0.8-0.3,1.1-0.4c0.6,0.1,0.7,0.6,0.9,1c1.4,3.1,3,6.2,5.2,8.9C34.7,87.2,35.2,87.6,34.9,88.2z"/>
	<path class="st71" d="M99.5,74.4c-0.2,0.6-0.3,1.2-0.5,1.8c-3.3,9-9.1,16-17.6,20.5c-8.1,4.2-16.5,5.2-25.4,3
		c0.2-0.4,0.6-0.5,1-0.6c1.8,0,3.5,0.4,5.2,0.5c9.1,0.7,17.2-1.8,24.3-7.4c7.2-5.7,11.4-13.2,12.9-22.3c2.6-16.8-8-33.8-25.1-38.6
		c-9.8-2.8-19.1-1.3-27.8,3.9c-0.6,0.4-1.2,1.1-2.1,0.6c-0.3-0.9,0.6-1,1-1.2C57.8,27,70.4,26.6,83,33.8c9.3,5.4,14.9,13.7,17,24.2
		c0.4,2.1,0.6,4.2,0.6,6.3c0,0.6-0.3,1.3,0.3,1.9c0,0.1,0,0.3,0,0.4c0.7,0.8,0.2,1.7,0.1,2.5c-0.1,0.8-0.3,1.5-0.4,2.2
		C100.4,72.5,100.1,73.5,99.5,74.4z"/>
	<path class="st72" d="M100.5,69.3c0.1-0.9,0.2-1.7,0.4-2.6c0.3,0.1,0.7,0.2,1,0.3c0.1,0.6,0,1.3,0.4,1.8c-0.1,0.1-0.2,0.3-0.3,0.4
		C101.5,69.6,101,69.6,100.5,69.3z"/>
	<path class="st73" d="M44.3,35.6c4.4-2.7,9-4.9,14.2-5.8C68.7,28,78,30.3,86.2,36.6c9.9,7.6,14.7,17.9,13.9,30.4
		c-1.1,16.4-12.9,29.5-29,32.5c-4.8,0.9-9.6,0.7-14.4-0.3c-2.2,0.2-4-0.8-5.9-1.6c-9.6-3.9-16.1-10.8-19.9-20.4
		c-0.7-1.6-0.9-3.4-1.2-5.1c-2.2-11.4,0.4-21.6,7.8-30.6C39.5,39.2,41.7,37.2,44.3,35.6z"/>
	<path class="st74" d="M29.8,72.2c0.9,2.2,1.4,4.5,2.3,6.6c4.9,10.8,13.1,17.6,24.6,20.4c-0.3,0.1-0.5,0.2-0.8,0.3
		c-4-0.6-7.4-2.6-10.8-4.4c-0.7-0.1-1.3-0.5-1.9-0.9c-6.7-4.8-11.1-11.3-13.7-19c-0.1-0.5-0.4-1,0-1.5
		C29.9,73.2,29.7,72.6,29.8,72.2z"/>
	<path class="st75" d="M29.5,73.6c0.1,0.5,0.2,1,0.3,1.5c-0.4,1.1-1.2,0.5-1.9,0.4c-0.5-0.8-0.6-1.7-0.7-2.5
		c-0.2-1.1,0.8-1.1,1.4-1.4C28.9,72.2,29.2,72.9,29.5,73.6z"/>
	<path class="st76" d="M27.9,75.5c0.5-0.8,1.4,0.5,1.9-0.4c1.5,3.4,2.8,6.8,4.9,9.8c2.8,4.1,6.4,7.3,10.4,10.2
		c-0.7,0.9-1.2,0-1.8-0.1c-1-0.3-1.3-1.8-2.6-1.3c-0.6-0.3-0.9-1.1-1.7-1.1c-1.4-1.4-2.7-2.9-4.1-4.3c-2.8-3.5-5-7.2-6.6-11.3
		C28.2,76.4,28.1,75.9,27.9,75.5z"/>
	<path class="st77" d="M99.5,74.4c0.2-1,0.5-1.9,0.7-2.9c0.7-0.3,1.1,0.1,1.4,0.7c0.2,0.7-0.3,1.2-0.3,1.9
		C100.6,74,100,74,99.5,74.4z"/>
	<path class="st78" d="M101.6,72.1c-0.5-0.2-0.9-0.4-1.4-0.7c0.1-0.7,0.2-1.5,0.3-2.2c0.5,0,1,0,1.4,0
		C102.2,70.3,101.5,71.2,101.6,72.1z"/>
	<path class="st79" d="M30.5,64.4c0-18.3,15.4-34.6,35.3-33.8C83.3,31.2,99.2,45.4,99,64.9c-0.2,19.2-14.8,33.5-32.7,33.9
		C45.5,99.3,30.9,84.4,30.5,64.4z"/>
	<path class="st80" d="M96.1,66c-0.4,9-4.3,16.3-11,22.3c-5,4.4-10.9,6.8-17.4,7.5c-5,0.6-10,0.1-14.8-1.8
		c-6.5-2.6-11.8-6.5-15.6-12.5c-0.3-0.5-0.7-1-0.7-1.6c0.1,0,0.2,0,0.3-0.1c1.8,1.1,2.5,3,3.8,4.5c5,5.7,11.3,9.1,18.8,10.3
		c8,1.3,15.4-0.4,22-4.9c7.6-5.1,12.1-12.3,13.4-21.4c0.1-0.8,0.2-1.6,0.7-2.2C95.8,65.9,96,65.9,96.1,66z"/>
	<path class="st81" d="M36.7,79.8c-2.1-2.4-2.9-5.4-3.6-8.4c-3.2-14.2,2.7-28.2,15.2-35.4c3.5-2,7.2-3.1,11-4c0.2,0.3,0.8,0,0.8,0.6
		c-0.3,0.5-0.9,0.5-1.5,0.6c-13.2,3-21.6,10.9-24.8,24.2c-1.6,6.9-0.5,13.6,2.4,20c0.3,0.7,0.9,1.3,0.5,2.2L36.7,79.8z"/>
	<path class="st82" d="M60.1,32.5c-0.3-0.1-0.5-0.2-0.8-0.4c4.7-0.5,9.4-0.4,13.9,1c9.8,2.9,16.6,9.2,20.7,18.5
		c1.4,3.3,2.3,6.7,2.2,10.4c-0.2,0.1-0.4,0.1-0.5-0.1c-1-2.7-1.1-5.5-2.1-8.3c-4.2-12.2-16-20.7-28.8-20.7
		C63.2,32.9,61.6,33.3,60.1,32.5z"/>
	<path class="st83" d="M95.8,62c0.1,0,0.2,0,0.3,0c0.6,1.3,0.6,2.7,0,4c-0.1,0-0.2,0-0.3,0C95,64.6,95,63.3,95.8,62z"/>
	<path class="st84" d="M95.8,62c0,1.3,0,2.7,0,4c-1.2,11.2-6.4,19.8-16.2,25.5c-10.8,6.3-26.3,4.8-35.7-3.5c-2.8-2.4-5-5.2-7.1-8.3
		c-2.6-5-4.1-10.3-4.1-16c0.1-15.4,11.5-28.7,26.8-31c0.2,0,0.4-0.2,0.7-0.3c6-0.4,11.9,0.1,17.4,2.8c10,4.8,15.9,12.8,17.9,23.6
		C95.6,59.9,95.7,60.9,95.8,62z"/>
	<path class="st85" d="M81.2,39c0.5,0.3,0.9,0.7,1.4,1c2,1.7,3.8,3.5,5.5,5.5l0,0c0.7,1.1,1.6,2.2,2.1,3.4c2.5,4,3.8,8.5,4,13.2
		c0.3,2.8-0.1,5.5-0.7,8.2c-1.1,4.8-3,9.1-6.3,12.8c-0.3,0.4-0.5,0.8-1.1,0.9c-1.4-0.8-0.3-1.7,0.1-2.3c1.4-2,2.5-4.1,3.4-6.4
		c2.5-6.7,3.3-13.4,0.9-20.2c-3.3-9.5-10-15.4-19.6-18.1c-2.4-0.7-4.8-1.4-7.3-1.6c-0.7-0.1-1.7-0.1-1.3-1.3
		c3.9-0.5,7.6,0.2,11.2,1.4C76.4,36.2,78.8,37.5,81.2,39z"/>
	<path class="st86" d="M62.2,34.3c0.8,1,2,0.5,3.1,0.8c5.6,1.3,11.2,2.6,15.9,6.3c6.2,4.8,9.9,11.1,11,18.9c1,7.4-1,14.1-4.7,20.4
		c-0.5,0.8-1.1,1.6-1.6,2.4c-0.2,0.4-0.3,0.7,0.3,0.7c-0.2,1.5-1.8,2-2.5,3.1c-1.3,0.9-2.6,1.8-3.9,2.7c-2.2,1-4.2,2.2-6.6,2.8
		c-0.5,0.1-1,0.5-1.6,0.3c-0.8-0.8,0-1.2,0.5-1.5c1.1-0.7,2.4-1.2,3.6-1.8c3.4-2,6.8-4,9.2-7.2c3.6-4.8,5.5-10.2,6-16.1
		c0.5-5.6-0.7-10.8-3.4-15.7C83.2,42.8,76.5,38.6,68,37c-4.2-0.8-8.3-0.1-12.4,0.8c-0.7,0.2-1.7,0.8-2,0c-0.4-1,0.8-1.4,1.5-1.7
		c1.3-0.5,2.8-0.7,4-1.7C60.1,34.5,61.1,33.6,62.2,34.3z"/>
	<path class="st87" d="M52,91.5c-9.5-4.3-15.1-11.6-17.4-21.6c-0.8-3.6-0.7-7.2-0.3-10.8c0.4,0,0.5,0.2,0.6,0.5
		c0.3,1.2,0.1,2.4,0.1,3.6c-0.1,12.3,5.6,21.1,16.1,27c0.4,0.2,0.9,0.4,1.2,0.8c0.1,0.2,0.2,0.3,0.1,0.5
		C52.3,91.6,52.1,91.7,52,91.5z"/>
	<path class="st88" d="M62.2,34.3c-1.1,0.1-2.2,0.2-3.3,0.4c-1.6,0.8-3.3,1.3-5.1,1.4c-0.2-0.1-0.4-0.2-0.5-0.4
		c6.8-2.8,13.6-2.9,20.5-0.4c0.2,0.2,0.2,0.3,0,0.4C70.1,34.5,66.2,34,62.2,34.3z"/>
	<path class="st89" d="M34.5,59.4c-0.1-0.1-0.2-0.2-0.3-0.3c0.9-4.4,2.4-8.6,5-12.3c0.4-0.6,0.9-1.1,1.4-1.7
		c0.2,0.1,0.3,0.2,0.3,0.4c0,0.7-0.5,1.2-0.8,1.8c-2.2,3.3-3.7,6.8-4.6,10.6C35.3,58.5,35.5,59.3,34.5,59.4z"/>
	<path class="st90" d="M53.4,35.7c0.2,0,0.3,0,0.5,0c0.1,0.7-0.5,0.9-1,1.1c-3.9,1.6-7.2,4.1-10.1,7.2c-0.5,0.6-1,1.4-2,1.3
		c0,0-0.1-0.1-0.1-0.1C43.9,40.7,48.2,37.5,53.4,35.7z"/>
	<path class="st91" d="M87,83.1c3-3.6,5.2-7.7,6.2-12.4c0.2-0.1,0.3-0.1,0.5,0c-1,4.7-2.9,8.9-6.2,12.4C87.3,83.3,87.2,83.3,87,83.1
		z"/>
	<path class="st92" d="M94,62c-0.2-4.7-1.7-9.1-4-13.1c0.1-0.2,0.3-0.2,0.5,0c2.5,4,3.8,8.4,3.9,13.2C94.2,62.1,94.1,62.1,94,62z"/>
	<path class="st93" d="M94,62c0.1,0,0.3,0,0.4,0c0.6,3,0,5.9-0.7,8.8c-0.2,0-0.3,0-0.5,0C93.8,67.8,94.1,64.9,94,62z"/>
	<path class="st94" d="M52,91.5c0.1,0,0.3,0,0.4,0c0.5-0.5,1.1-0.3,1.7,0c1.3,0.5,2.7,0.8,4.1,1.2c1.1,0.4,2.3,0.3,3.3,0.9
		c0.2,0.1,0.2,0.3,0.1,0.5C58.1,93.9,55,93,52,91.5z"/>
	<path class="st95" d="M73.9,35.7c0-0.1,0-0.3,0-0.4c2.7,0.8,5.2,1.8,7.3,3.8C78.8,37.9,76.3,36.8,73.9,35.7z"/>
	<path class="st96" d="M71.7,92.6c0.5,0.1,1-0.1,1.5-0.4c0.1,0.1,0.4,0.2,0.4,0.4c-1.9,0.8-3.9,1.2-5.9,1.3
		c-0.5-0.3-1.1,0.2-1.5-0.4c0.1-0.4,0.5-0.6,0.9-0.6C68.6,92.9,70.1,92.4,71.7,92.6z"/>
	<path class="st97" d="M88.1,45.6c-2-1.6-3.8-3.5-5.5-5.5C85,41.4,86.7,43.3,88.1,45.6z"/>
	<path class="st98" d="M73.6,92.6c-0.1-0.1-0.3-0.3-0.4-0.4c1.7-0.2,3.2-1.1,4.7-1.8c0.6-0.3,1.2-0.8,2-0.7
		C78,91.1,75.9,92,73.6,92.6z"/>
	<path class="st99" d="M87,83.1c0.2,0,0.3,0,0.5,0.1c-1,1.5-2.3,2.8-3.8,3.8c0.4-1.4,1.9-1.9,2.5-3.1C86.5,83.6,86.8,83.3,87,83.1z"
		/>
	<path class="st100" d="M66.2,93.7c0.5,0.1,1-0.1,1.4,0.3c-2.1,0.2-4.1,0.2-6.2,0.1c0-0.1,0-0.2,0-0.3
		C63.1,92.8,64.7,92.8,66.2,93.7z"/>
	<path class="st101" d="M90.4,48.8c-0.2,0-0.3,0-0.5,0c-0.4-1.2-1.6-2-1.8-3.3C89.3,46.4,89.8,47.6,90.4,48.8z"/>
	<path class="st102" d="M71.7,92.6c-1.5,0.6-3.1,0.7-4.7,0.7c-0.1-1,0.7-1.1,1.3-1.3c4.1-1.3,7.7-3.5,11.2-6
		c6.9-5,9.9-11.9,10.4-20.1c0.4-6.2-1-11.9-4.6-17c-0.1-0.1-0.2-0.3-0.3-0.4c-0.2-0.4-0.4-0.7-0.9-0.8c-1.4-0.1-2.5-0.5-3.6-1.5
		c-6.8-6.4-14.7-8-23.6-5.6c-3.5,0.9-6.5,2.6-9,5.3c-1,1.1-2.2,1.6-3.6,1.8c-1.3,0.3-0.5,1.4-0.8,2.1c-0.3,1.8-1.4,3.2-2,4.9
		c-2.7,7.5-1.8,14.9,1.3,22.1c1.3,3.1,2.9,6.1,5,8.8c1.2,1.5,2.7,2.5,4,3.9c0.4,0.4,1.5,0.8,0.5,1.7c-5-2-9-5.3-12.1-9.6
		c-4.1-5.7-6.1-12-5.7-19c0.1-1,0-2.1,0-3.1c1-3.2,1.8-6.4,3.4-9.4c0.9-1.6,2.2-3,2.8-4.8c1.7-1.6,3.4-3.2,5.1-4.7
		c2.4-2.1,5.2-3.3,8-4.7c1.7-0.2,3.3-1.2,5.1-1.1c-0.5,0.9-1.3,1.3-2.4,1.5c-1.1,0.1-2.2,0.6-3.1,1.8c3.7-1.1,7.2-2,10.7-1.8
		c7.1,0.4,13.4,2.7,18.7,7.7c4.6,4.3,7.4,9.5,8.3,15.5c1.1,6.6-0.2,13-3.2,19.1c-3.1,6.3-8.6,9.8-14.6,12.8
		C72.1,91.8,72.1,91.8,71.7,92.6z"/>
	<path class="st96" d="M52.4,91.1c0-1.1-0.9-1.6-1.6-2.1c-2.5-1.7-4.1-4.1-5.6-6.6c-2.6-4.5-4.7-9.2-5.5-14.3
		c-0.8-5.2-0.3-10.4,2.1-15.3c0.5-1.1,1-2.2,1.5-3.3c0.9,0.8,1.3,1.8,1.4,3c-0.1,3.1-1.5,6-1.7,9.1c-0.6,8.7,1.2,16.7,6.7,23.5
		c2.9,3.6,6.8,5.6,11.6,5.4c1.1,0,2.2,0,3.3-0.1c8.3-1.8,15-6,19.4-13.2c2.9-4.8,3.5-10.3,2.8-15.8c-0.4-3.2-1.3-6.4-3.3-9.1
		c-1.2-1.5-0.8-2.4,0.9-2.9c2.8,3.5,4.1,7.6,4.6,11.9c0.6,5.1,0,10-2,14.8c-1.4,3.2-3.5,6-6.1,8.3c-5,4.3-10.6,7.5-17.2,8.5
		c-1.8,0.3-3.5,0-5.3,0.1c-2.1,0.1-3.8-1.1-5.8-1.5C52.4,91.4,52.4,91.2,52.4,91.1z"/>
	<path class="st93" d="M58.2,92.9c1.7-1,3.7-0.3,5.5-0.6c5.7-0.9,10.4-3.7,15-6.9c11-7.7,12.5-24.3,6-34.4c-0.3-0.4-0.4-1-0.6-1.5
		c-0.1-0.8,0.3-1.2,1.1-1.1c1.8,1.5,2.6,3.6,3.4,5.7c3.8,9.6,1.8,23.1-6.4,30.3c-4.1,3.6-8.7,6.6-14,8.1c-0.5,0.1-0.9,0.3-1.1,0.8
		c-0.3,0-0.6,0.1-0.7,0.3c-1.6,0-3.2,0-4.7,0C60.3,93.7,59.3,93.4,58.2,92.9z"/>
	<path class="st103" d="M85.2,48.5c-0.5,0.2-0.9,0.6-1.1,1.1c-1.2,0.6-1.3,1.5-0.5,2.5c5.2,7.6,4.6,15.6,1.7,23.7
		c-1.1,3.2-3.5,5.6-6,7.9c-3.5,3.1-7.5,5.3-11.9,6.7c-0.9,0.3-1.7,0.5-2.6,0.7c-0.1-0.1-0.2-0.3-0.2-0.5c0.4-0.9,1.2-0.9,1.9-1.2
		c6.7-2.2,12-6.4,15.7-12.3c3.2-5.2,3.4-11,1.6-16.9c-0.5-1.6-1-3.3-2.8-4c1-0.9,2.1-0.6,3.2-0.4c-3.8-3.2-7.7-6.5-11.6-9.9
		c-1.3-1.1-3.2-1-4.2,0.1c-0.5,0.7-1.4,0.8-2.1,0.8c-3.6-0.1-7.2,0.1-10.7,1.3c-0.6,0.2-1.3,0.1-2,0c-0.4,0-0.7-0.1-1.1-0.1
		c-2.1-0.2-2.4,0-3,1.9c-0.2,0.7-0.4,1.4-0.7,2c-0.2,0.6-0.3,1.4-1.2,1.4c-0.7,0-0.8-0.8-1-1.3c-0.3-0.7-0.5-1.4-0.7-2.1
		C45.6,48.8,45,48,44,47.4c2.5-0.3,3.9-2.4,5.7-3.8c9-6.9,23.4-6,31.3,2.4c1.1,1.2,2.5,0.7,3.5,1.4c-0.5,0.5-1.1,0.4-1.7,0.4
		c-0.5,0-1.1,0.1-1.5,0.4c-0.5,0.4-1.3,0.7-0.8,1.5c0.5,0.8,1.1,0.3,1.7,0c1-0.6,1.6-1.9,3-1.7C85.2,48.1,85.2,48.3,85.2,48.5z"/>
	<path class="st104" d="M68.4,45.5c0-0.2-0.4-0.6-0.1-0.6c1.4,0,3-0.6,4.2,0.4c4.2,3.5,8.3,7,12.8,10.9c-1.7,0-2.9,0-4.2,0
		c-1.3,0.2-1.9-1-2.9-1.5c-0.4-0.2-0.7-0.1-1,0.2c-1.6,1.7-3.7,1.8-5.9,1.6c-0.4-0.1-0.7-0.3-0.9-0.6c-0.4-0.9-1.2-1.1-2.1-1.1
		c-1.3,0-2.7,0.2-4-0.1c-0.9-0.4-0.7-1-0.2-1.6c0.8-0.9,1.8-1.1,2.9-1c-0.8-1.6-1-1.7-2-0.5c-0.3,0.4-0.6,0.7-0.9,1.1
		c-1,1.1-1.7,2.3-2.7,3.4c-1.2,0.9-1.7,2.5-3.2,3c-0.3,0.1-0.7,0.1-1.1,0.1c-0.7,0-1.6,0.2-2-0.5c-0.4-0.7,0.4-1.3,0.7-1.8
		c-0.8-0.6-1.9,0-2.7-0.4c-0.4-0.2-0.6-0.6-0.7-1.1c-0.2-1.1-0.7-2.1-1.1-3.2c-0.9,1.4-0.7,3.4-2.4,4.3c-3.7,0.5-4.7-0.3-4.9-4
		c-0.4-1-0.7-1.9-1.1-2.9c0.2-0.7-1.4-2.1,0.7-2.1c1.1-0.1,1.8,0.4,2.1,1.5c0.4,1.4,0.9,2.7,1.5,4.3c0.8-1,1-2.1,1.3-3.1
		c1.1-3,1.4-3.1,4.6-2.3c1.2,0.9,1,2.6,2,3.7c0.5-1,0.7-2,1.1-2.9c0.5-1.1,2.3-1.9,3.4-1.5c0.9,0.4,0.6,1,0.5,1.7
		c-0.7,1.9-1.4,3.8-2.1,5.5c1.4-1.9,3.2-3.7,4.7-5.9c2.2-1.9,4.7-1.7,6.5,0.5c1,1.2,2,2.4,3,3.6c0.7,0.9,1.3,0.6,2,0
		c0.8-0.8,0.1-1.1-0.4-1.5c-1.6-1.4-3.2-2.8-4.8-4.1C69,46.5,68.5,46.2,68.4,45.5z"/>
	<path class="st105" d="M85.1,48c-0.9,0.7-1.9,1.4-2.8,2.2c-1,0.8-2.3,0.5-2.8-0.6c-0.3-0.6,1.2-1.9,2.3-2.1
		c0.9-0.1,1.8-0.1,2.7-0.1C84.8,47.5,85.1,47.5,85.1,48z"/>
	<path class="st106" d="M44.3,52.5c0.1,0.1,0.1,0.2,0.2,0.3c1.3,3.3,1.3,3.3,5,3.4c0,0.7-0.6,0.7-1.1,0.8c-1.3-0.1-2.1,0.4-2.5,1.8
		c-2.1,8.7-1.3,17,3.5,24.6c2.7,4.3,6.9,6.5,12.1,6.5c1.1,0,2.5-0.5,3.3,0.8c0,0.1,0,0.2,0,0.4c-3.3-0.1-6.6,0.3-9.8-1.2
		c-5.6-2.6-8.5-7.4-10.6-12.8c-1.6-4.1-2.3-8.5-2.2-12.9c0-2.6,0.5-5.2,1.3-7.6C44,55.2,43.7,53.7,44.3,52.5z"/>
	<path class="st107" d="M64.8,90.8c-1-0.6-2-0.4-3-0.3c-6.8,0.5-12.5-4.5-14.8-10.2c-2.1-5.1-2.9-10.5-2.5-16
		c0.1-2.3,0.6-4.6,1.4-6.9c0.5-1.5,1.7-0.6,2.6-0.9c1.1,0.5,1.1,1.3,0.6,2.3c-3.2,7.5-2.5,14.8,0.6,22.1c2.6,6.1,8.3,8.8,14.8,7.6
		c6.7-1.2,16.9-10.1,17.8-18c0.5-4.4-0.2-8.4-2.7-12.1c-0.7-1.1-1.7-2.1-2.3-3.3c0.1-0.7,0.4-1.1,1.2-0.8c0.9,0.6,1.7,1.3,2.6,1.9
		c1.7,0.1,2.2,1,2.7,2.7c2.2,6.3,2.1,12.5-1.1,18.3c-2.4,4.3-6,7.5-10.2,10.1c-2.1,1.3-4.3,2.4-6.8,2.9
		C65.5,90.2,65.1,90.5,64.8,90.8z"/>
	<path class="st108" d="M60.1,48.8c-0.2-0.4,0.8-1.2-0.2-1.3c-0.9-0.1-2.1-0.7-2.7,0.7c-0.5,1.5-1.1,2.9-1.7,4.7
		c-1-1.8-1.6-3.5-2-5.3c4.4-0.7,8.7-2,13.3-1.5c0.7,0.1,1.3-0.2,1.7-0.7c2.2,1.8,4.5,3.7,6.7,5.5c0.4,0.3,1.3,0.8,0.3,1.3
		c-0.8,0.4-1.2,2.5-2.6,0.9c-1.2-1.3-2.2-2.7-3.4-4c-1.7-2.1-3.7-2.3-6.1-0.8c-0.3,0.4-0.7,0.8-1.1,1.2c-0.4,0.5-0.5,1.3-1.4,1.1
		C59.9,50.5,60.2,49.6,60.1,48.8z"/>
	<path class="st109" d="M77.5,55c4.9,4.1,7.1,12.5,4.5,18.6c-3.6,8.2-9.8,13.8-18.8,15.5c-4.9,0.9-11.5-1.6-14.2-8.4
		c-2.5-6.1-3.1-12.4-1.7-18.8c0.2-1.1,0.6-2.2,1.3-3.2c0.5-0.8,0.5-1.6-0.2-2.3c0.4,0,0.8,0.1,1.1-0.3c0.7-1.7,1.3-3.3,2-5.2
		c0.7,1.4,1.2,2.7,1.6,4.1c-0.2,1-0.2,2-0.9,2.9c-3.2,3.8-3.7,8.4-3.6,13c0.1,3.3,0.9,6.6,2.2,9.7c2.4,5.4,7.6,8.1,13.4,6.8
		c4.9-1.1,8.4-4.2,11.7-7.6c3.2-3.2,5.1-6.9,5.1-11.5c0-4-1.2-7.5-4-10.4C75.7,56.5,75.8,55.8,77.5,55z"/>
	<path class="st110" d="M58.5,58.8c1-1.1,1.9-2.1,2.9-3.2c1,0.4,2.1,0.4,3.2,0.4c2.1,0,4.1,0.4,6,1.3c8.8,4,10.6,14.5,3.8,21.4
		c-3.3,3.4-6.8,6.3-11.7,7.3c-1.5,0.3-2.9,0-4.3-0.3c-0.6-0.1-1.2-0.5-0.6-1.3c1.4-0.6,3-0.2,4.4-0.4c0.2,0,0.4,0,0.5-0.1
		c0.6-0.9,1.5-1.3,2.5-1.7c4-2,7.7-4.5,9.5-8.9c1.5-3.6,1.4-7.4-1.4-10.4c-2.8-3.1-6.5-4.3-10.7-3.6c-1.3,0.2-2.6,0.6-3.8,1.3
		c-0.6,0.3-1.2,0.6-1.6,1.1c-0.1,0.1-0.2,0.3-0.4,0.4C53.5,68,52.9,74,56.4,80.2c0.4,0.6,0.8,1.2,1.1,1.9c0.2,0.6,0.2,1.2-0.2,1.7
		c-1.1,0.3-1.3-0.7-1.7-1.2c-5-6.7-4.7-16.8,0.2-22.6c0.2-0.3,0.3-0.7,0.6-0.9C57,58.7,57.8,59,58.5,58.8z"/>
	<path class="st111" d="M77.5,55c-1.3,0.7-1.3,1.5-0.2,2.5c6,5.8,5.4,16.1-0.2,21.8c-2.3,2.4-4.6,4.8-7.5,6.5
		c-5.2,3-11.3,3.8-16.5-0.8c-1.9-1.7-2.9-4-3.6-6.4c-1.8-5.7-2.1-11.3-0.1-17c0.4-1.2,1-2.4,1.8-3.3c0.8-1,1.4-2.1,1.9-3.2
		c0.2,0.4-0.1,0.9,0.4,1.1c0.3,0.2,0.8,0.1,1,0.5c0.3,0.9-0.1,1.5-0.6,2.1c-3.4,3.8-4,8.5-3.8,13.3c0.1,3,0.9,6,2.3,8.7
		c2.4,4.8,6.4,7.1,12.1,5.4c7-2.1,12.3-6.6,14.6-13.8c1.6-5,0.4-9.6-3.1-13.5c-0.9-1-1.7-2.3-3.4-2.1c-0.4-0.1-0.8-0.2-0.8-0.7
		c2.3,0.2,4.3-0.1,5.9-2c0.4-0.4,0.8-0.6,1,0.2C78.1,54.3,77.7,54.6,77.5,55z"/>
	<path class="st112" d="M72.4,56.5c2.6-0.7,3.4,1.7,4.5,3c5.3,6.4,3.5,14.9-1.4,19.9c-2.7,2.7-5.5,5.3-9.1,6.7
		C59,89,52.7,85.7,50.6,78c-1.3-4.8-1.5-9.6-0.1-14.4c0.5-1.8,1.4-3.5,2.7-4.8c0.6-0.7,1.1-1.3,0.9-2.2c0.9-0.3,1.8-0.3,2.7,0
		c-0.5,0.7-1,1.3-1.7,2.3c1.3,0,2.3,0,3.3,0c-0.7,0.5-1.4,0.2-2.2,0.3c-0.2,0.2-0.4,0.3-0.7,0.4c-1.2,0.5-1.9,1.5-2.4,2.6
		c-2.9,6.5-2.9,12.9,0.5,19.2c2.2,4.1,6.1,5.6,10.8,4.2c2.6-0.8,4.7-2.2,6.7-3.9c3-2.6,5.9-5.3,6.8-9.4c1.2-5.4,0.1-10-4.6-13.4
		C72.8,58.3,71.7,57.8,72.4,56.5z"/>
	<path class="st113" d="M72.4,56.5c-0.2,1.3,0.9,1.7,1.7,2.1c4.4,2.9,6.4,9.8,3.9,15c-3,6.4-7.9,10.9-15,12.6
		c-3.3,0.8-7.3-0.8-9.1-3.6c-4.1-6.8-4.4-13.8-1-20.9c0.5-1.1,1.2-2.4,2.7-2.6c0.6,1-0.4,1.5-0.8,2c-4.2,6.2-4.1,16.4,1.6,22.6
		c0.1,0.1,0.3,0.2,0.5,0.3c0.4,0.1,0.7,0.2,0.9,0.6c1.2,1.2,2.9,1.3,4.3,0.9c6.9-1.6,12.4-5.4,14.9-12c3-7.7-0.4-14.5-9.1-16.7
		c-1.7-0.4-3.4-0.3-5-0.4c-0.7,0-1.4,0.1-1.5-0.9c1-0.9,1.4-2.3,2.5-3.1c0.6-0.2,0.8,0.1,0.8,0.7c-0.3,0.3-1.1,0.5-0.3,1.2
		c1.3,0.4,2.6,0.2,3.9,0.2c1.2-0.1,2.1,0.3,2.7,1.3c0.2,0.1,0.5,0.3,0.7,0.4C72,56.3,72.2,56.4,72.4,56.5z"/>
	<path class="st114" d="M60.1,48.8c0.1,0.3,0.3,0.5,0.3,0.8c0.1,0.4,0.2,0.8,0.7,0.9c0.4,0.1,0.6-0.3,0.8-0.6
		c0.4-0.6,0.8-1.1,1.5-1.4c-1.4,2.7-3.8,4.7-5.8,7C58.4,53.3,59.2,51.1,60.1,48.8z"/>
	<path class="st115" d="M64.7,53.1c-0.3-0.2-0.5-0.4-0.8-0.7c0.1-0.2,0.3-0.4,0.4-0.6c1.9-2.3,1.9-2.3,3.8,0.4
		C67.1,52.7,65.6,52,64.7,53.1z"/>
	<path class="st110" d="M71,55.8c-1-1.1-2.3-1.2-3.6-1.1c-1,0-2.1,0.4-3-0.3c1.6,0,3.1-0.1,4.7-0.1C70.2,54.2,70.7,54.8,71,55.8z"/>
	<path class="st109" d="M56.9,56.5c-0.9,0-1.8,0-2.7,0c-0.2-0.1-0.5-0.2-0.7-0.3c1.1,0,2.3,0,3.4,0c0,0,0.1,0.1,0.1,0.1
		C56.9,56.4,56.9,56.5,56.9,56.5z"/>
	<path class="st116" d="M58.6,60.5c2.1-1.7,4.5-1.9,7-1.8c5,0.1,9.5,3.6,10.4,8.2c0.8,4.6-0.7,8.5-4.2,11.5
		c-2.2,1.9-4.4,3.9-7.3,4.6c-0.9,0.2-0.5,1.2-1.1,1.5c-1-2.4-0.5-4.9-0.4-7.3c0.1-0.2,0.2-0.4,0.4-0.5c0.5-0.3,1.2-0.3,1.8-0.3
		c3,0.3,5.7-0.5,8-2.5c1.7-1.1,2-3,2-4.5c0-2-0.5-4.1-2.5-5.4c-0.2-0.2-0.4-0.4-0.6-0.6c-2.5-2.8-5.6-3.5-9.2-3
		C61.4,60.6,60,61.3,58.6,60.5z"/>
	<path class="st117" d="M57.1,82c-3.1-4.1-4.3-8.7-3.1-13.8c0.5-2,1-3.8,2.1-5.6c0.3-0.5,0.4-1.1,1.1-1c0.5,0.5,0.5,1.2,0.5,1.9
		c0,5.5,0,11,0,16.5C57.6,80.7,57.7,81.5,57.1,82z"/>
	<path class="st118" d="M57.1,82c0-6.8,0.1-13.6,0.1-20.3c0,0,0,0,0,0c0.6-0.6,1.3-0.6,2-0.6c2.7,0,5.3,0,8,0c2.1,0,3.8,0.8,5.3,2.3
		c0.1,0.1,0.3,0.3,0.4,0.4c2.6,2.1,3,7.4,0.6,10.1c-2.6,3.3-6.2,3.2-9.8,2.9c-0.8-0.8,0-1,0.5-1.1c1-0.2,2.1-0.1,3.1-0.1
		c2.4,0,4.6-0.7,5.5-3.1c1-2.6,1.1-5.4-0.7-7.8c-1-1.4-2.6-1.8-4.2-1.9c-2.5-0.1-5,0-7.5,0c-1.5,0-2,0.7-2,2.1c0,5.4,0,10.8,0,16.2
		c0,1,0.2,2,1.5,2c1.3,0.1,2-0.7,2.1-2c0.1-1-0.1-2.1,0.1-3.1c0.1-0.5-0.2-1.5,1-1.1c-0.1,2.5,0.2,5-0.2,7.5c-1.7,0-3.4,0-5.1,0
		c-0.3-0.1-0.5-0.3-0.8-0.4C57,84.1,56.9,84,57,83.9c0-0.1,0.1-0.1,0.1-0.1C57.1,83.2,57.1,82.6,57.1,82z"/>
	<path class="st119" d="M57.1,83.8c0,0.1,0,0.2,0,0.4c-1.7-0.5-2.3-2.1-3.1-3.4c-2.6-4.4-2.8-9.1-1.9-14c0.5-3,2.2-5.3,3.6-7.8
		c0.2,0,0.5,0,0.7,0c0.1,0.7-0.3,1.1-0.7,1.6c-4,5.1-4.5,14.5-0.8,20C55.6,81.8,56,83,57.1,83.8z"/>
	<path class="st117" d="M72.4,63.4c-1.9-1.3-4-1.8-6.3-1.8c-3,0.1-6,0-8.9,0.1c0-0.9,0.7-1,1.4-1.2c2.3-0.2,4.6-0.8,6.9-0.7
		C68.4,59.9,70.8,60.9,72.4,63.4z"/>
	<path class="st113" d="M63,84.6c0-2.5,0.1-5.1,0.1-7.6c0.1,0,0.1,0.1,0.2,0.1c0,2.5,0,5,0,7.5C63.2,84.5,63.1,84.6,63,84.6z"/>
	<path class="st120" d="M63.3,77c-0.1,0-0.1,0-0.2-0.1c-1.2,1.4-0.4,3-0.5,4.5c-0.1,1.4-0.7,2.3-2.2,2.4c-2.1,0.2-2.6-0.3-2.6-2.4
		c0-5.6,0-11.1,0-16.7c0-1.7,0.6-2.4,2.4-2.4c2.5,0.1,5.1,0,7.6,0c3.3,0.1,5.2,1.6,5.9,4.8c0.4,1.9,0.4,3.9-0.4,5.7
		c-0.9,2.1-2.7,3.2-5,3.3c-1.3,0.1-2.7,0-4,0c-0.5,0-0.9,0-0.6,0.7C63.6,76.9,63.4,77,63.3,77z"/>
	<path class="st117" d="M73.5,73.9c1.6-3.5,1.6-6.9-0.6-10.1c1.8,0.9,3.5,5,2.7,6.8c-0.4,0.9-0.8,1.7-1,2.7
		C74.4,73.6,74.3,74.4,73.5,73.9z"/>
	<path class="st121" d="M63.7,72.2c-0.2-0.2-0.5-0.3-0.7-0.5c-0.4-1.7-0.4-3.4,0-5c0.1-0.1,0.2-0.2,0.3-0.4c2.7-0.9,5.1,0.2,5.3,2.5
		C68.8,71.6,66.6,73,63.7,72.2z"/>
	<path class="st122" d="M63.7,72.2c0.7,0,1.3,0,2-0.1c1.7-0.2,2.7-1.1,2.7-2.8c0-1.7-0.9-2.7-2.7-2.9c-0.8-0.1-1.6-0.1-2.3-0.1
		c0-0.1-0.1-0.3-0.1-0.3c1-0.7,3.7-0.3,4.8,0.8c1.1,1.1,1.2,3.5,0.2,4.7c-0.9,1.1-3.3,1.7-4.4,1.1C63.7,72.5,63.7,72.3,63.7,72.2z"
		/>
	<path class="st123" d="M63,66.7c0,1.7,0,3.4,0,5C62.3,70.1,62.3,68.4,63,66.7z"/>
</g>
</svg>
