<?xml version="1.0" encoding="UTF-8"?><svg id="Layer_1" xmlns="http://www.w3.org/2000/svg" viewBox="0 0 128 128"><defs><style>.cls-1{fill:#3aace2;}.cls-1,.cls-2,.cls-3{stroke-width:0px;}.cls-2{fill:#3c54a1;}.cls-3{fill:#eee;}</style></defs><circle class="cls-3" cx="64.11" cy="63.93" r="63.5"/><path class="cls-1" d="m88.31,37.79h-45.68s5.03,5.37,5.03,5.37c0,0,8.99-.01,12.02.05-3.58,4.93-7.67,9.32-11.9,14.14-9.13-9.77-18.09-19.36-27.44-29.37h86.94c.13.14.27.28.4.41-14.4,18.66-28.8,37.33-43.21,56h-12.1c12.06-15.64,23.84-30.9,35.95-46.61Z"/><path class="cls-2" d="m76.76,44.13c-11.85,15.25-23.79,30.61-35.96,46.25h44.29c-2.11-2.24-3.94-4.21-5.8-6.14-.53-.56-1.28-.47-1.98-.47-2.14,0-4.28,0-6.57-.24,3.06-4.14,6.4-7.94,9.62-12.38,9.06,9.63,17.9,19.03,26.74,28.42-.1.14-.19.29-.29.43H21.67c-.28-.68.1-.99.36-1.33,14.02-18.01,28.04-36.01,42.05-54.02.52-.67,1.03-1.29,1.98-1.28,3.23,0,6.47,0,9.7.02.32,0,.63.09.99.74Z"/></svg>