<?xml version="1.0" encoding="utf-8"?>
<!-- Generator: Adobe Illustrator 26.4.1, SVG Export Plug-In . SVG Version: 6.00 Build 0)  -->
<svg version="1.1" id="Layer_1" xmlns="http://www.w3.org/2000/svg" xmlns:xlink="http://www.w3.org/1999/xlink" x="0px" y="0px"
	 viewBox="0 0 128 128" style="enable-background:new 0 0 128 128;" xml:space="preserve">
<style type="text/css">
	.st0{fill:#FC3F5C;}
	.st1{fill:#FFFFFF;}
</style>
<circle class="st0" cx="63.9" cy="64" r="63"/>
<g id="Group_11518">
	<rect id="Rectangle_17428" x="33.3" y="50.7" class="st1" width="11.1" height="9.4"/>
	<rect id="Rectangle_17429" x="33.3" y="64.4" class="st1" width="11.1" height="11.1"/>
	<g id="r-seeklogo.com" transform="translate(3.655)">
		<path id="Path_31501" class="st1" d="M37.6,37.3v53.4h16.1V69.9c4,0,6.4-0.9,9.1,4c4,6.9,9.1,16.8,9.1,16.8H91
			c0,0-12.1-19.8-13.1-20.8c-1.9-2-4-2-7.1-3c6-1,11.7-3.5,13.7-8.9c2-5.2,1.2-11-2.2-15.5c-3.2-3.3-6.5-5.3-14.5-5.3L37.6,37.3z
			 M53.7,48.4h10.6c2.7,0.3,4.7,2.7,4.5,5.4c-0.2,2.4-2.1,4.2-4.5,4.5H53.7V48.4z"/>
	</g>
</g>
</svg>
