<?xml version="1.0" encoding="utf-8"?>
<!-- Generator: Adobe Illustrator 26.0.2, SVG Export Plug-In . SVG Version: 6.00 Build 0)  -->
<svg version="1.1" id="Layer_1" xmlns="http://www.w3.org/2000/svg" xmlns:xlink="http://www.w3.org/1999/xlink" x="0px" y="0px"
	 width="128px" height="128px" viewBox="0 0 128 128" style="enable-background:new 0 0 128 128;" xml:space="preserve">
<style type="text/css">
	.st0{fill:#EFF4F4;}
	.st1{fill:url(#SVGID_1_);}
</style>
<circle class="st0" cx="64" cy="64" r="63.5"/>
<g>
	<linearGradient id="SVGID_1_" gradientUnits="userSpaceOnUse" x1="64" y1="116.9233" x2="64" y2="11.0767">
		<stop  offset="0" style="stop-color:#F45C67"/>
		<stop  offset="6.511402e-02" style="stop-color:#F35671"/>
		<stop  offset="0.3556" style="stop-color:#EE409B"/>
		<stop  offset="0.6184" style="stop-color:#EA30BA"/>
		<stop  offset="0.842" style="stop-color:#E826CC"/>
		<stop  offset="1" style="stop-color:#E722D3"/>
	</linearGradient>
	<path class="st1" d="M116.9,67.8c-0.2,11.1-5.4,23.9-16.2,34.3c-10.6,10.2-23.3,15.2-38,14.9c-28-0.5-52-23.6-51.7-53.5
		c0.3-28.8,23.9-53,54.2-52.3c14.2,0.3,26.4,5.7,36.4,15.7C111.4,36.6,117,49.9,116.9,67.8z M101.2,32.9c-0.1,0-0.1,0-0.2,0.1
		c0,0.2,0,0.4,0,0.6c0,11.3,0,22.6,0,33.9c0,4.9,0,9.8,0,14.8c0,2-1.8,3.4-3.6,2.8c-1.2-0.4-2-1.4-2-2.8c0-18.2,0-36.3,0-54.5
		c0-0.4-0.1-0.7-0.4-0.9c-1.2-0.9-2.4-1.8-3.6-2.7c-0.1-0.1-0.3-0.1-0.5-0.2c0,0.3,0,0.6,0,0.8c0,16.9,0,33.7,0,50.6
		c0,2.2-2.3,3.5-4.2,2.4c-1-0.6-1.4-1.4-1.4-2.6c0-17.9,0-35.8,0-53.7c0-0.2,0-0.3,0-0.5c-0.1-0.2-0.1-0.4-0.3-0.5
		c-1.4-0.6-2.9-1.3-4.3-1.9c-0.3-0.1-0.4,0-0.4,0.3c0,0.1,0,0.2,0,0.3c0,7.5,0,14.9,0,22.4c0,8.7,0,17.3,0,26c0,1.5-1,2.5-2.1,2.7
		c-0.9,0.1-1.7,0-2.5-0.5c-7.4-5.4-14.8-10.7-22.1-16.1c-9-6.5-18-13.1-27-19.6c-0.4-0.3-0.6-0.2-0.8,0.1c-2.2,2.8-4.1,5.9-5.7,9.1
		c-2.7,5.7-4.3,11.8-4.6,18.1c-0.2,2.8-0.1,5.7,0.3,8.5c0.4,3.1,1,6.1,2,9.1c1.8,5.7,4.6,10.8,8.3,15.4c0.1,0.2,0.3,0.3,0.5,0.5
		c0-0.4,0-0.6,0-0.8c0-16.3,0-32.7,0-49c0-2,2-3.4,3.8-2.6c1.1,0.4,1.8,1.5,1.8,2.8c0,7.5,0,15,0,22.5c0,10.8,0,21.6,0,32.4
		c0,0.4,0.1,0.7,0.4,0.9c1.4,1,2.8,2.1,4.2,3.1c0.1,0.1,0.3,0.2,0.5,0.3c0-0.3,0-0.5,0-0.7c0-9.9,0-19.7,0-29.6c0-7.1,0-14.2,0-21.3
		c0-1.5,1.2-2.7,2.7-2.7c1.7,0,2.8,1.4,2.8,2.8c0,7.9,0,15.8,0,23.7c0,10.1,0,20.3,0,30.4c0,0.5,0.1,0.9,0.7,1.1
		c1.1,0.4,2.2,0.9,3.2,1.4c0.2,0.1,0.3,0.1,0.6,0.2c0-0.3,0-0.5,0-0.7c0-10.6,0-21.2,0-31.9c0-5.5,0-11.1,0-16.6
		c0-1.2,0.4-2.2,1.6-2.7C50,57,51,57.2,52,57.9c0.7,0.6,1.5,1.1,2.3,1.6c8.2,6,16.4,11.9,24.6,17.9c7,5.1,14,10.2,21,15.3
		c0.7,0.5,1.3,1,2.1,1.5c7.9-10.2,11.4-21.7,10.3-34.5C111.5,49.6,107.6,40.7,101.2,32.9z M53,76.5c0,0.3,0,0.4,0,0.6
		c0,11.2,0,22.4,0,33.6c0,0.4,0.1,0.5,0.5,0.6c3,0.7,6,1,9.1,1.1c1.3,0,2.5,0,3.8-0.1c2.2,0,4.4-0.3,6.5-0.7
		c6.5-1.2,12.4-3.6,17.9-7.2c0.1-0.1,0.3-0.2,0.5-0.4C78.5,94.9,65.8,85.8,53,76.5z M37.5,23.5C50,32.5,62.4,41.5,74.9,50.6
		c0-0.3,0-0.4,0-0.6c0-10.9,0-21.9,0-32.8c0-0.4-0.1-0.5-0.5-0.6c-1.5-0.2-2.9-0.6-4.4-0.7c-2.1-0.2-4.1-0.3-6.2-0.4
		c-1,0-2.1,0-3.1,0.2c-1.9,0.2-3.9,0.4-5.8,0.7c-6.1,1.1-11.8,3.4-17.1,6.8C37.8,23.2,37.7,23.3,37.5,23.5z M75,62.1
		c0-0.3,0-0.5,0-0.6c0-1,0-2,0-3.1c0-0.6-0.2-1-0.7-1.4C65.1,50.4,56,43.7,46.8,37.1c-4.6-3.3-9.1-6.6-13.7-9.9
		c-0.3-0.2-0.5-0.2-0.7,0c-0.7,0.6-1.4,1.3-2.1,1.9c-0.4,0.4-0.4,0.4,0,0.7c6.7,4.8,13.3,9.7,20,14.5c8,5.8,15.9,11.6,23.9,17.4
		C74.5,61.8,74.7,61.9,75,62.1z M98.5,98.1C83.3,87.1,68.2,76.2,53,65.3c0,0.2-0.1,0.2-0.1,0.3c0,1.3,0,2.6,0,3.9
		c0,0.2,0.2,0.4,0.3,0.5c2.1,1.5,4.1,3,6.2,4.5c5.8,4.2,11.6,8.3,17.4,12.5C82.9,91.3,89,95.6,95,100c0.8,0.6,0.8,0.6,1.6-0.1
		C97.3,99.3,97.9,98.7,98.5,98.1z"/>
</g>
</svg>
