<?xml version="1.0" encoding="utf-8"?>
<!-- Generator: Adobe Illustrator 26.0.3, SVG Export Plug-In . SVG Version: 6.00 Build 0)  -->
<svg version="1.1" id="Layer_1" xmlns="http://www.w3.org/2000/svg" xmlns:xlink="http://www.w3.org/1999/xlink" x="0px" y="0px"
	 viewBox="0 0 128 128" style="enable-background:new 0 0 128 128;" xml:space="preserve">
<style type="text/css">
	.st0{fill:#EFF4F4;}
	.st1{fill:url(#SVGID_1_);}
	.st2{fill:url(#SVGID_00000148619893676442469580000018344284910977784511_);}
	.st3{fill:url(#SVGID_00000132046634862904582330000015950414974398536832_);}
	.st4{fill:#050404;}
	.st5{fill:#FF6F00;}
</style>
<circle class="st0" cx="64" cy="64" r="64"/>
<g>
	<circle cx="539.1" cy="29.5" r="64"/>
	<g>
		<linearGradient id="SVGID_1_" gradientUnits="userSpaceOnUse" x1="493.9853" y1="68.1939" x2="591.2178" y2="-15.0554">
			<stop  offset="0" style="stop-color:#00E9BA"/>
			<stop  offset="1" style="stop-color:#F800FF"/>
		</linearGradient>
		<path class="st1" d="M539.1-34.5c-35.3,0-64,28.7-64,64s28.7,64,64,64c35.3,0,64-28.7,64-64S574.5-34.5,539.1-34.5z M539.1,86.2
			c-31.3,0-56.6-25.4-56.6-56.6s25.4-56.6,56.6-56.6c31.3,0,56.6,25.4,56.6,56.6S570.4,86.2,539.1,86.2z"/>
		
			<linearGradient id="SVGID_00000155136226672345706930000016936038486263071674_" gradientUnits="userSpaceOnUse" x1="496.6346" y1="66.7859" x2="594.7999" y2="-16.925">
			<stop  offset="0" style="stop-color:#00E9BA"/>
			<stop  offset="1" style="stop-color:#F800FF"/>
		</linearGradient>
		<path style="fill:url(#SVGID_00000155136226672345706930000016936038486263071674_);" d="M583.1,57.6L583.1,57.6
			c5.2-8.1,8.2-17.7,8.2-28c0-10.3-3-19.9-8.2-28l0,0c0.7-0.5,0.9-1.4,0.4-2.1c-4.3-6.4-10-11.8-16.6-15.8
			c-6.8-4.1-14.4-6.7-22.3-7.5c-0.8-0.1-1.6,0.5-1.6,1.4c-1.3-0.1-2.6-0.1-3.9-0.1c-19.8,0-37,11.1-45.9,27.3l0,0
			c-0.7-0.4-1.7-0.1-2.1,0.6c-3.8,7.5-5.8,15.8-5.8,24.2c0,7.7,1.6,15,4.7,21.9c0.3,0.8,1.3,1.1,2,0.7c8.5,17.5,26.3,29.5,47,29.5
			c1,0,1.9,0,2.9-0.1c0,0.8,0.8,1.5,1.6,1.4c16.1-1.3,30.9-10,40-23.4C584.1,59,583.9,58,583.1,57.6z M538.4,79.7
			c-27-0.4-49.1-22.4-49.4-49.4c-0.4-28.2,22.6-51.2,50.8-50.8c27,0.4,49.1,22.4,49.4,49.4C589.6,57,566.6,80.1,538.4,79.7z"/>
		
			<linearGradient id="SVGID_00000132806563421756098640000017181899077511260351_" gradientUnits="userSpaceOnUse" x1="505.4337" y1="54.7401" x2="593.5197" y2="-21.0616">
			<stop  offset="0" style="stop-color:#00E9BA"/>
			<stop  offset="1" style="stop-color:#F800FF"/>
		</linearGradient>
		<path style="fill:url(#SVGID_00000132806563421756098640000017181899077511260351_);" d="M568.6,38.6c-1.4-3.6-3.9-6.7-7.1-8.9
			c0.3-0.3,0.5-0.5,0.8-0.7c4-2.9,6.6-7.5,7.4-12.4c0.2-2.1,0.2-4.3-0.2-6.3c-0.6-3.2-2.1-6.3-4.3-8.7c-0.7-0.6-1.3-1.4-2-2
			c-2.4-2-5.3-3.4-8.3-4c-0.6-0.2-1.3-0.1-1.8-0.5c-5.5,0-11,0-16.5,0c-1.9,0-3.7-0.2-5.6,0.4c-3,0.8-5.5,2.9-6.9,5.7
			c-1.7,3.3-1.5,7.4,0.5,10.6c1.6,2.6,4.3,4.5,7.2,5c1.2,0.3,2.3,0.2,3.5,0.2c4.1,0,8.2,0,12.4,0c0.9,0,1.7-0.4,2.3-1
			c0.8-0.9,1.1-2.3,0.6-3.4c-0.5-1.1-1.7-1.9-2.9-1.9c-4.6,0-9.2,0-13.8,0c-1.5,0-2.8-0.8-3.7-2c-1.1-1.5-1.1-3.6-0.1-5.1
			c0.8-1.3,2.3-2.2,3.8-2.2c5.8,0,11.5,0,17.3,0c3.2,0,6.5,1.3,8.8,3.7c2.2,2.2,3.6,5.2,3.7,8.3c0.1,3-0.9,6-2.7,8.3
			c-2.3,2.9-5.8,4.6-9.5,4.7c-5.9,0-11.8,0-17.7,0c-4.3,0.1-8.3,2.9-9.9,6.9c-1.1,2.6-1,5.6,0.1,8.2c1.2,3,3.8,5.3,6.9,6.3
			c1.1,0.3,2.2,0.5,3.4,0.5c4.5,0,9.1,0,13.6,0c1.5,0,2.8-1.1,3.1-2.6c0.3-1.4-0.6-2.9-1.9-3.5c-0.6-0.2-1.2-0.2-1.8-0.3
			c-4.3,0-8.6,0-13,0c-0.9,0-1.9-0.3-2.7-0.8c-1.4-0.9-2.3-2.6-2-4.3c0.2-1.6,1.2-3.1,2.7-3.7c0.8-0.4,1.6-0.4,2.5-0.4
			c5.6,0,11.1,0,16.7,0c2.7,0,5.3,0.9,7.4,2.5c2.4,1.7,4.1,4.3,4.7,7.2c0.8,3.2,0.2,6.6-1.5,9.4c-2.2,3.6-6.2,5.9-10.4,6
			c-9.8,0-19.6,0-29.4,0c-2.8,0-5.2-2-6-4.6c-0.3-1-0.3-1.9-0.3-2.9c0-17,0-33.9,0-50.9c0-1,0.1-1.9-0.4-2.8c-0.6-1.1-2-1.7-3.2-1.5
			c-1.3,0.2-2.5,1.3-2.6,2.6c-0.1,0.7,0,1.4,0,2.1c0,16.8,0,33.5,0,50.2c0,1.7,0,3.4,0.6,5c1.2,4.2,4.7,7.5,8.9,8.6
			c2,0.6,3.9,0.4,6,0.4c9.3,0,18.5,0,27.8,0c4.8-0.4,9.4-2.7,12.6-6.3c2.2-2.6,3.7-5.5,4.4-8.8c0.4-2,0.4-4.2,0.1-6.2
			C569.4,41.3,569.1,39.9,568.6,38.6z"/>
	</g>
</g>
<g>
	<path class="st4" d="M65.9,23.2H34.3c-2.7,0-4.8,2.2-4.8,4.8v71.9c0,2.7,2.2,4.8,4.8,4.8h31.6c22.5,0,40.8-18.3,40.8-40.8v0
		C106.7,41.5,88.4,23.2,65.9,23.2z M66,89.2c-14,0-25.3-11.3-25.3-25.3S52.1,38.6,66,38.6c14,0,25.3,11.3,25.3,25.3S80,89.2,66,89.2
		z"/>
	<path class="st5" d="M77.4,64c0,6.2-5,11.3-11.3,11.3s-11.3-5-11.3-11.3s11.3-16,11.3-16S77.4,57.8,77.4,64z"/>
</g>
</svg>
