<?xml version="1.0" encoding="utf-8"?>
<!-- Generator: Adobe Illustrator 27.1.1, SVG Export Plug-In . SVG Version: 6.00 Build 0)  -->
<svg version="1.1" id="Layer_1" xmlns="http://www.w3.org/2000/svg" xmlns:xlink="http://www.w3.org/1999/xlink" x="0px" y="0px"
	 viewBox="0 0 128 128" style="enable-background:new 0 0 128 128;" xml:space="preserve">
<style type="text/css">
	.st0{fill:#F2F2F2;}
</style>
<g>
	<circle cx="64" cy="64" r="63.5"/>
</g>
<g>
	<path class="st0" d="M48.9,33.4L26,45.2v37.5l22.9,11.8V66.9l-4-3.9l4-2.5V33.4z M41.2,83.4l-7.6-3.9V68.1h7.6V83.4z M41.2,60.3
		h-7.6V48.9l7.6-3.9V60.3z"/>
	<path class="st0" d="M75.5,31.5L64,25.6l-11.3,5.8v65l11.4,5.9l11.4-5.7V66.8L71.7,63l3.8-2.1V31.5z M67.9,92.1l-3.8,2.7l-3.8-2.7
		V67.7h7.6V92.1z M67.9,60.3h-7.6V36l3.8-2.7l3.8,2.7V60.3z"/>
	<polygon class="st0" points="94.6,60.3 94.6,48.9 87,45 87,84.2 94.6,80.3 94.6,68.1 102,68.1 102,83.3 79.3,94.7 79.3,33.5 
		102,45.2 102,60.3 	"/>
</g>
</svg>
