<?xml version="1.0" encoding="utf-8"?>
<!-- Generator: Adobe Illustrator 26.0.3, SVG Export Plug-In . SVG Version: 6.00 Build 0)  -->
<svg version="1.1" id="Layer_1" xmlns="http://www.w3.org/2000/svg" xmlns:xlink="http://www.w3.org/1999/xlink" x="0px" y="0px"
	 viewBox="0 0 128 128" style="enable-background:new 0 0 128 128;" xml:space="preserve">
<style type="text/css">
	.st0{fill:#7020BB;}
	.st1{fill:#F9CE00;}
	.st2{fill:#FFFFFF;}
	.st3{opacity:0.5;clip-path:url(#SVGID_00000150796438993766589450000006480425009581118340_);}
	.st4{opacity:0;fill:#FFFFFF;}
	.st5{opacity:9.090909e-02;fill:#FFFFFF;}
	.st6{opacity:0.1818;fill:#FFFFFF;}
	.st7{opacity:0.2727;fill:#FFFFFF;}
	.st8{opacity:0.3636;fill:#FFFFFF;}
	.st9{opacity:0.4545;fill:#FFFFFF;}
	.st10{opacity:0.5455;fill:#FFFFFF;}
	.st11{opacity:0.6364;fill:#FFFFFF;}
	.st12{opacity:0.7273;fill:#FFFFFF;}
	.st13{opacity:0.8182;fill:#FFFFFF;}
	.st14{opacity:0.9091;fill:#FFFFFF;}
</style>
<circle class="st0" cx="64" cy="64" r="63.5"/>
<path class="st1" d="M89.3,59.3c0,0,11.9-9.5,8.7-23.1C94.8,22.6,78,1,26.2,28.6l26.9,84.2c0,0,52.9-4.1,52.7-32.7
	C105.8,62.2,89.3,59.3,89.3,59.3z M53.2,40.1c0,0,17.6-6.9,20.9,1.9c3.3,8.7-14.6,14.5-14.6,14.5L53.2,40.1z M68.5,90.1l-4.6-12.9
	c5.8-3,15.1-4.1,17.9,1.1C84.6,83.4,68.5,90.1,68.5,90.1z"/>
<g>
	<path class="st2" d="M23,22.1c3.1-3.3,11.8-10.6,17.6-4.4s-7.5,18.5-15.3,18.5C11.4,36.2,20.6,24.7,23,22.1z"/>
	<ellipse class="st2" cx="14.1" cy="37.2" rx="3.8" ry="3.3"/>
</g>
<g>
	<defs>
		<circle id="SVGID_1_" cx="64" cy="64" r="63.5"/>
	</defs>
	<clipPath id="SVGID_00000078037695554690452540000011009203135242853286_">
		<use xlink:href="#SVGID_1_"  style="overflow:visible;"/>
	</clipPath>
	<g style="opacity:0.5;clip-path:url(#SVGID_00000078037695554690452540000011009203135242853286_);">
		<ellipse transform="matrix(0.8691 -0.4946 0.4946 0.8691 -11.3997 25.2535)" class="st4" cx="42" cy="34.2" rx="48.3" ry="26.8"/>
		
			<ellipse transform="matrix(0.8691 -0.4946 0.4946 0.8691 -11.0734 24.6711)" class="st5" cx="41.1" cy="33.3" rx="45.7" ry="25.3"/>
		<ellipse transform="matrix(0.8691 -0.4946 0.4946 0.8691 -10.7472 24.0886)" class="st6" cx="40.1" cy="32.4" rx="43" ry="23.9"/>
		
			<ellipse transform="matrix(0.8691 -0.4946 0.4946 0.8691 -10.4209 23.5062)" class="st7" cx="39.2" cy="31.4" rx="40.4" ry="22.4"/>
		<ellipse transform="matrix(0.8691 -0.4946 0.4946 0.8691 -10.0947 22.9237)" class="st8" cx="38.3" cy="30.5" rx="37.8" ry="21"/>
		
			<ellipse transform="matrix(0.8691 -0.4946 0.4946 0.8691 -9.7684 22.3413)" class="st9" cx="37.3" cy="29.6" rx="35.1" ry="19.5"/>
		<ellipse transform="matrix(0.8691 -0.4946 0.4946 0.8691 -9.4421 21.7588)" class="st10" cx="36.4" cy="28.7" rx="32.5" ry="18"/>
		
			<ellipse transform="matrix(0.8691 -0.4946 0.4946 0.8691 -9.1159 21.1764)" class="st11" cx="35.5" cy="27.8" rx="29.9" ry="16.6"/>
		
			<ellipse transform="matrix(0.8691 -0.4946 0.4946 0.8691 -8.7896 20.5939)" class="st12" cx="34.5" cy="26.9" rx="27.2" ry="15.1"/>
		<ellipse transform="matrix(0.8691 -0.4946 0.4946 0.8691 -8.4634 20.0115)" class="st13" cx="33.6" cy="26" rx="24.6" ry="13.6"/>
		<ellipse transform="matrix(0.8691 -0.4946 0.4946 0.8691 -8.1371 19.429)" class="st14" cx="32.6" cy="25.1" rx="22" ry="12.2"/>
		
			<ellipse transform="matrix(0.8691 -0.4946 0.4946 0.8691 -7.8109 18.8465)" class="st2" cx="31.7" cy="24.2" rx="19.3" ry="10.7"/>
	</g>
	<g style="opacity:0.5;clip-path:url(#SVGID_00000078037695554690452540000011009203135242853286_);">
		
			<ellipse transform="matrix(0.7727 -0.6347 0.6347 0.7727 -45.5077 89.1053)" class="st4" cx="101.7" cy="108.1" rx="33.6" ry="12.5"/>
		
			<ellipse transform="matrix(0.7727 -0.6347 0.6347 0.7727 -45.5634 89.5326)" class="st5" cx="102.2" cy="108.4" rx="31.8" ry="11.9"/>
		
			<ellipse transform="matrix(0.7727 -0.6347 0.6347 0.7727 -45.6191 89.9598)" class="st6" cx="102.8" cy="108.7" rx="29.9" ry="11.2"/>
		
			<ellipse transform="matrix(0.7727 -0.6347 0.6347 0.7727 -45.6748 90.3871)" class="st7" cx="103.4" cy="109" rx="28.1" ry="10.5"/>
		
			<ellipse transform="matrix(0.7727 -0.6347 0.6347 0.7727 -45.7305 90.8144)" class="st8" cx="104" cy="109.3" rx="26.3" ry="9.8"/>
		
			<ellipse transform="matrix(0.7727 -0.6347 0.6347 0.7727 -45.7862 91.2417)" class="st9" cx="104.5" cy="109.6" rx="24.4" ry="9.1"/>
		
			<ellipse transform="matrix(0.7727 -0.6347 0.6347 0.7727 -45.8419 91.669)" class="st10" cx="105.1" cy="109.9" rx="22.6" ry="8.4"/>
		
			<ellipse transform="matrix(0.7727 -0.6347 0.6347 0.7727 -45.8976 92.0963)" class="st11" cx="105.7" cy="110.1" rx="20.8" ry="7.8"/>
		
			<ellipse transform="matrix(0.7727 -0.6347 0.6347 0.7727 -45.9533 92.5236)" class="st12" cx="106.2" cy="110.4" rx="18.9" ry="7.1"/>
		
			<ellipse transform="matrix(0.7727 -0.6347 0.6347 0.7727 -46.009 92.9509)" class="st13" cx="106.8" cy="110.7" rx="17.1" ry="6.4"/>
		
			<ellipse transform="matrix(0.7727 -0.6347 0.6347 0.7727 -46.0647 93.3782)" class="st14" cx="107.4" cy="111" rx="15.3" ry="5.7"/>
		
			<ellipse transform="matrix(0.7727 -0.6347 0.6347 0.7727 -46.1204 93.8055)" class="st2" cx="107.9" cy="111.3" rx="13.4" ry="5"/>
	</g>
</g>
</svg>
