<?xml version="1.0" encoding="utf-8"?>
<!-- Generator: Adobe Illustrator 26.4.1, SVG Export Plug-In . SVG Version: 6.00 Build 0)  -->
<svg version="1.1" id="Layer_1" xmlns="http://www.w3.org/2000/svg" xmlns:xlink="http://www.w3.org/1999/xlink" x="0px" y="0px"
	 viewBox="0 0 128 128" style="enable-background:new 0 0 128 128;" xml:space="preserve">
<style type="text/css">
	.st0{fill:#EFF4F4;}
	.st1{fill:#BB2E25;}
</style>
<circle class="st0" cx="64" cy="64" r="62.7"/>
<g transform="translate(3.4 4)">
	<path class="st1" d="M56.1,46.6l-5,6H96c4.1,0,7.8-2.3,9.5-6C105.6,46.6,56.1,46.6,56.1,46.6z M86.9,63.1h4.4c4.1,0,7.8-2.3,9.5-6
		h-9L86.9,63.1z M78.3,73.4h8.1c4.1,0,7.8-2.3,9.5-6H83.3L78.3,73.4z M69.9,67.4H25.3c1.8,3.7,5.5,6,9.6,6H65L69.9,67.4z M37.7,52.7
		l4.9-6h-27c1.8,3.7,5.5,6,9.5,6H37.7z M44.3,57L44.3,57l16.1-18.6l6.3,6.3h8.1L60.4,28.6L32.1,63h44.5l-0.1,0.1L60.4,81.7l-0.1-0.1
		l-6.3-6.3h-8l14.4,16.1L88.9,57L44.3,57L44.3,57z M29.2,63l5-6H20.4c1.5,3,4.3,5.2,7.6,5.9C28.4,63,28.8,63,29.2,63L29.2,63z"/>
</g>
</svg>
