<?xml version="1.0" encoding="utf-8"?>
<!-- Generator: Adobe Illustrator 26.4.1, SVG Export Plug-In . SVG Version: 6.00 Build 0)  -->
<svg version="1.1" id="Layer_1" xmlns="http://www.w3.org/2000/svg" xmlns:xlink="http://www.w3.org/1999/xlink" x="0px" y="0px"
	 width="128px" height="128px" viewBox="0 0 128 128" style="enable-background:new 0 0 128 128;" xml:space="preserve">
<style type="text/css">
	.st0{fill:#326457;}
	.st1{fill:#EFF4F4;}
	.st2{fill:#2347D6;}
</style>
<g>
	<path class="st1" d="M0.7,64.2C0.6,29.1,28.9,0.6,63.8,0.5c34.9-0.1,63.1,28.3,63.6,63.2c0.4,33.5-27.4,63.8-63.3,63.8
		C29,127.5,0.7,99.2,0.7,64.2z"/>
</g>
<g>
	<path class="st2" d="M73.2,69.7c-7.1,4.4-16.7,6.6-26.4,6.2c-8.1-0.4-14.8-3.3-18.8-8c-3.5-4.2-4.9-9.9-4-16.3
		c0.3-2.1,1-4.2,1.9-6.2l0.1-0.3c3.3-6.4,8.3-11.8,14.4-15.7c6.1-3.9,13.1-6.2,20.4-6.6c7.3-0.4,14.5,1.1,21,4.3
		c6.5,3.2,12,8,16.1,14c4,6,6.4,12.9,7,20c0.5,7.2-0.8,14.3-4,20.8S93,93.9,87,98c-6,4.1-12.9,6.6-20.1,7.2l0.4,5
		c8.1-0.7,15.9-3.5,22.6-8.1c6.7-4.6,12.1-10.8,15.6-18.1s5-15.3,4.5-23.4c-0.6-8-3.3-15.8-7.8-22.5c-4.5-6.7-10.8-12.1-18.1-15.7
		c-7.3-3.6-15.4-5.2-23.6-4.8c-8.1,0.5-16,3-22.9,7.4c-6.8,4.4-12.4,10.4-16.2,17.6l-0.2,0.4c-1.2,2.4-2,5-2.4,7.7
		c-1.1,7.9,0.6,14.9,5.1,20.2c4.9,5.9,12.9,9.4,22.5,9.9c11.7,0.6,23.3-2.6,31.5-8.3L73.2,69.7z"/>
	<path class="st2" d="M82.9,75.4c-4.6,4-15.4,11.2-33.3,12.2c-20,1.1-28.4-5.3-28.5-5.4l-1.6,2l1.6-1.9l-3.3,3.9
		c0.4,0.3,8.4,6.7,27.2,6.7c1.5,0,3.2,0,4.8-0.1c21.6-1.2,33.5-10.5,37.7-14.5L82.9,75.4z"/>
	<path class="st2" d="M91.6,80.6c-2.7,3.6-6.1,6.6-10,9c-13.6,8.6-30.8,9.8-42.9,9.2l-0.3,5c2,0.1,4,0.1,5.9,0.1
		c34.1,0,47.8-15.3,51.7-20.8L91.6,80.6"/>
	<path class="st2" d="M90.3,61.5c2.3,0,4.1-1.8,4.1-4c0-2.2-1.8-4-4.1-4c-2.3,0-4.1,1.8-4.1,4C86.2,59.7,88.1,61.5,90.3,61.5z"/>
</g>
</svg>
